<svg width="118" height="48" viewBox="0 0 118 48" fill="none" xmlns="http://www.w3.org/2000/svg">
<g clip-path="url(#clip0)">
<path d="M25.46 40.27C25.46 40.42 25.51 40.49 25.6 40.49C25.7435 40.4866 25.884 40.4489 26.01 40.38C26.1825 40.3037 26.3466 40.2099 26.5 40.1C26.67 39.99 26.85 39.86 27.03 39.72C27.21 39.58 27.37 39.44 27.53 39.3L27.95 38.92L28.25 38.63C28.31 38.69 28.38 38.75 28.46 38.84L28.68 39.07L28.16 39.58L27.53 40.17C27.31 40.37 27.08 40.56 26.84 40.75C26.6095 40.9269 26.3691 41.0905 26.12 41.24C25.8983 41.3815 25.664 41.502 25.42 41.6C25.2174 41.6853 24.9998 41.7295 24.78 41.73C24.639 41.7155 24.5044 41.6637 24.39 41.58C24.2296 41.4779 24.0819 41.357 23.95 41.22C23.8075 41.0895 23.686 40.9377 23.59 40.77C23.5026 40.6463 23.4507 40.5011 23.44 40.35C23.4256 40.0669 23.4256 39.7832 23.44 39.5L22.67 40.17C22.42 40.38 22.17 40.59 21.92 40.77C21.67 40.95 21.41 41.13 21.14 41.29C20.8741 41.4512 20.5927 41.5852 20.3 41.69C20.2281 41.7252 20.1499 41.7456 20.07 41.75C19.9864 41.7421 19.9068 41.7109 19.84 41.66C19.7376 41.595 19.6436 41.5178 19.56 41.43C19.467 41.3399 19.3893 41.2352 19.33 41.12C19.2675 41.021 19.233 40.907 19.23 40.79C19.2367 40.5114 19.2839 40.2352 19.37 39.97C19.4685 39.6462 19.6027 39.3343 19.77 39.04C19.9577 38.7069 20.1718 38.3892 20.41 38.09C20.6677 37.7637 20.9557 37.4624 21.27 37.19C21.5989 36.9043 21.9538 36.6498 22.33 36.43C22.7212 36.2004 23.1372 36.0159 23.57 35.88C23.6813 35.9015 23.789 35.9386 23.89 35.99L24.25 36.18C24.47 35.57 24.71 34.96 24.99 34.34C25.27 33.72 25.56 33.14 25.87 32.57C26.18 32 26.51 31.47 26.87 30.98C27.1741 30.5186 27.5081 30.0777 27.87 29.66C28.1697 29.3157 28.5049 29.004 28.87 28.73C29.1475 28.5166 29.4683 28.3664 29.81 28.29C29.9555 28.2975 30.0967 28.3423 30.22 28.42C30.3703 28.5086 30.511 28.6125 30.64 28.73C30.7635 28.8443 30.8742 28.9717 30.97 29.11C31.0446 29.2114 31.1052 29.3224 31.15 29.44C31.1383 29.7668 31.0671 30.0888 30.94 30.39C30.7848 30.7976 30.5976 31.1921 30.38 31.57C30.14 31.98 29.85 32.42 29.52 32.88C29.19 33.34 28.84 33.8 28.46 34.27C28.08 34.74 27.68 35.21 27.26 35.68C26.84 36.15 26.42 36.61 26 37.05C25.828 37.6185 25.6878 38.196 25.58 38.78C25.491 39.2715 25.4508 39.7706 25.46 40.27V40.27ZM21.46 39.97C21.7838 39.915 22.0854 39.7694 22.33 39.55C22.7966 39.217 23.2348 38.8457 23.64 38.44C23.7 38.17 23.76 37.89 23.84 37.61C23.92 37.33 24 37.04 24.1 36.75C23.7488 36.99 23.4147 37.2539 23.1 37.54C22.7892 37.8189 22.4953 38.1161 22.22 38.43C21.9917 38.6828 21.7843 38.9537 21.6 39.24C21.472 39.4098 21.3893 39.6094 21.36 39.82C21.37 39.92 21.41 40 21.48 40L21.46 39.97ZM29.91 29.37C29.7633 29.3942 29.6312 29.4727 29.54 29.59C29.3623 29.7849 29.1985 29.9921 29.05 30.21C28.87 30.48 28.68 30.79 28.48 31.15C28.28 31.51 28.07 31.91 27.86 32.34C27.65 32.77 27.45 33.22 27.24 33.7C27.03 34.18 26.84 34.7 26.65 35.16C27.1 34.61 27.52 34.06 27.92 33.52C28.32 32.98 28.69 32.44 29 32C29.2699 31.5667 29.5105 31.1157 29.72 30.65C29.8722 30.3373 29.9606 29.9973 29.98 29.65V29.52C30 29.4 30 29.37 29.93 29.37H29.91Z" fill="#A9AFC3"/>
<path d="M34.4299 39.0701C33.9432 39.5502 33.4254 39.9978 32.8799 40.4101C32.4493 40.7442 31.9871 41.0356 31.4999 41.2801C31.0986 41.4854 30.6761 41.6464 30.2399 41.7601C29.8563 41.8498 29.4639 41.8967 29.0699 41.9001C28.8771 41.8895 28.6906 41.8273 28.5299 41.7201C28.3312 41.5976 28.1468 41.4534 27.9799 41.2901C27.8225 41.128 27.6818 40.9504 27.5599 40.7601C27.4644 40.6204 27.4059 40.4586 27.3899 40.2901C27.3859 39.8357 27.4534 39.3835 27.5899 38.9501C27.7157 38.561 27.894 38.1909 28.1199 37.8501C28.3324 37.5268 28.5881 37.2341 28.8799 36.9801C29.1485 36.7403 29.4438 36.5323 29.7599 36.3601C30.0463 36.1986 30.3521 36.0743 30.6699 35.9901C30.9421 35.906 31.2251 35.8622 31.5099 35.8601C31.7006 35.8666 31.8865 35.9216 32.0499 36.0201C32.2331 36.1274 32.4013 36.2586 32.5499 36.4101C32.6913 36.5566 32.8124 36.7214 32.9099 36.9001C32.9903 37.0338 33.0382 37.1845 33.0499 37.3401C33.0374 37.5706 32.9456 37.7896 32.7899 37.9601C32.5835 38.2047 32.3446 38.42 32.0799 38.6001C31.7224 38.8518 31.3482 39.079 30.9599 39.2801C30.5299 39.5101 30.0499 39.7401 29.5299 39.9701C29.5204 40.1066 29.5204 40.2436 29.5299 40.3801C29.5216 40.4483 29.5279 40.5176 29.5486 40.5831C29.5693 40.6487 29.6039 40.7091 29.6499 40.7601C29.7864 40.838 29.9433 40.8729 30.0999 40.8601C30.4789 40.8603 30.8549 40.7926 31.2099 40.6601C31.5614 40.5282 31.8968 40.3571 32.2099 40.1501C32.5399 39.9408 32.8511 39.7033 33.1399 39.4401L34.0199 38.6301L34.4299 39.0701ZM31.2899 36.8401C31.1418 36.8561 31.0039 36.9233 30.8999 37.0301C30.7401 37.1855 30.5961 37.3563 30.4699 37.5401C30.3146 37.7655 30.1774 38.0029 30.0599 38.2501C29.9294 38.5216 29.8191 38.8023 29.7299 39.0901C29.9499 38.9501 30.1599 38.8001 30.3699 38.6401C30.5709 38.4864 30.7613 38.3193 30.9399 38.1401C31.0923 37.975 31.2264 37.7939 31.3399 37.6001C31.4345 37.4319 31.4861 37.243 31.4899 37.0501C31.5053 37.0013 31.5053 36.9489 31.4899 36.9001C31.467 36.8706 31.4354 36.8489 31.3995 36.8381C31.3637 36.8274 31.3254 36.8281 31.2899 36.8401V36.8401Z" fill="#A9AFC3"/>
<path d="M34.29 38.3499C34.4732 38.1797 34.6468 37.9994 34.81 37.8099C34.992 37.6152 35.156 37.4043 35.3 37.1799C35.4561 36.9546 35.5805 36.709 35.67 36.4499C35.6936 36.3036 35.7305 36.1597 35.78 36.0199C35.8405 35.8736 35.9141 35.733 36 35.5999C36.0511 35.4917 36.1114 35.388 36.18 35.2899C36.24 35.2099 36.29 35.1699 36.34 35.1699C36.4513 35.2398 36.5582 35.3166 36.66 35.3999L37.09 35.7699L37.47 36.1299C37.5331 36.1881 37.587 36.2556 37.63 36.3299C37.5613 36.5705 37.5276 36.8197 37.53 37.0699C37.5313 37.2875 37.548 37.5047 37.58 37.7199C37.58 37.9399 37.65 38.1599 37.69 38.3999C37.7328 38.6778 37.7528 38.9588 37.75 39.2399C37.7416 39.4597 37.7081 39.6778 37.65 39.8899C37.5929 40.1307 37.4837 40.356 37.33 40.5499C37.6434 40.3709 37.9442 40.1705 38.23 39.9499L39.02 39.3299L39.8 38.6299L40.2 39.0699L39.57 39.6599C39.34 39.8599 39.1 40.0699 38.85 40.2699C38.6 40.4699 38.36 40.6599 38.1 40.8499C37.84 41.0399 37.59 41.1899 37.34 41.3399C37.11 41.4735 36.8692 41.5872 36.62 41.6799C36.4114 41.7557 36.1918 41.7963 35.97 41.7999C35.7743 41.7947 35.5811 41.754 35.4 41.6799C35.1984 41.5927 35.0045 41.489 34.82 41.3699C34.6446 41.2679 34.4832 41.1435 34.34 40.9999C34.2316 40.9114 34.1459 40.7982 34.09 40.6699C34.0869 40.6467 34.0869 40.6232 34.09 40.5999L34.17 40.4699L34.27 40.3599C34.27 40.3599 34.33 40.3599 34.35 40.3599C34.4237 40.3754 34.4946 40.4024 34.56 40.4399C34.7316 40.507 34.9162 40.5344 35.1 40.5199C35.2242 40.5236 35.3465 40.4887 35.45 40.4199C35.553 40.3449 35.6355 40.2452 35.69 40.1299C35.7636 40.0031 35.8144 39.8643 35.84 39.7199C35.8507 39.5568 35.8507 39.3931 35.84 39.2299C35.8555 38.9902 35.8555 38.7497 35.84 38.5099C35.84 38.2699 35.84 38.0499 35.76 37.8299C35.66 37.9399 35.55 38.0699 35.42 38.1999L35.02 38.5899L34.62 38.9599L34.26 39.2899L33.83 38.8499L34.29 38.3499Z" fill="#A9AFC3"/>
<path d="M40.31 41.7501C40.1905 41.7433 40.0742 41.709 39.97 41.6501C39.8317 41.5884 39.7009 41.5112 39.58 41.4201C39.4591 41.3325 39.3514 41.2281 39.26 41.1101C39.1808 41.0218 39.1348 40.9086 39.13 40.7901C39.19 40.5234 39.27 40.2234 39.37 39.8901C39.47 39.5501 39.58 39.2001 39.69 38.8901C39.8 38.5801 39.93 38.2001 40.06 37.8901C40.19 37.5801 40.3 37.2501 40.41 36.9901C40.52 36.7301 40.6 36.5201 40.68 36.3601C40.76 36.2001 40.81 36.1201 40.83 36.1201C40.9245 36.1445 41.0153 36.1815 41.1 36.2301C41.24 36.3101 41.39 36.4001 41.55 36.5101C41.6964 36.6188 41.8367 36.7356 41.97 36.8601C42.0699 36.9403 42.1374 37.0539 42.16 37.1801C42.16 37.1801 42.16 37.1801 42.16 37.2401V37.3501L41.98 37.8701C41.9 38.0701 41.83 38.2801 41.74 38.5001L41.49 39.1501L41.27 39.7601C41.21 39.9501 41.15 40.1201 41.11 40.2601C41.0769 40.3604 41.0567 40.4646 41.05 40.5701C41.05 40.5701 41.05 40.6201 41.1 40.6201C41.2036 40.6052 41.3026 40.5676 41.39 40.5101C41.5482 40.4192 41.6987 40.3155 41.84 40.2001L42.37 39.8001C42.56 39.6501 42.74 39.5001 42.9 39.3501L43.36 38.9601L43.67 38.6901L43.87 38.9001L44.08 39.1301L43.59 39.6001L42.95 40.1801L42.24 40.7701C41.99 40.9601 41.75 41.1401 41.52 41.2901C41.3154 41.4334 41.0977 41.5573 40.87 41.6601C40.6933 41.7348 40.5012 41.7656 40.31 41.7501V41.7501ZM43.84 33.3401L43.77 33.5201L43.63 33.8401C43.58 33.9601 43.52 34.0901 43.45 34.2201C43.38 34.3501 43.32 34.4801 43.25 34.5901C43.1938 34.688 43.1302 34.7816 43.06 34.8701C43.01 34.9401 42.96 34.9801 42.92 34.9801C42.7863 34.9634 42.6552 34.9298 42.53 34.8801C42.3821 34.8236 42.2384 34.7568 42.1 34.6801C41.9747 34.6158 41.8544 34.5422 41.74 34.4601C41.64 34.3901 41.6 34.3401 41.6 34.3101C41.607 34.1457 41.6407 33.9835 41.7 33.8301C41.7731 33.6325 41.8565 33.4389 41.95 33.2501C42.0356 33.0804 42.1324 32.9167 42.24 32.7601C42.34 32.6301 42.41 32.5601 42.47 32.5601C42.6054 32.5666 42.7381 32.6006 42.86 32.6601L43.31 32.9001C43.4413 32.9747 43.5652 33.0618 43.68 33.1601C43.79 33.2501 43.84 33.3101 43.84 33.3401Z" fill="#A9AFC3"/>
<path d="M50.9301 39.0699C50.4201 39.5899 49.9301 40.0699 49.3901 40.5099C48.8501 40.9499 48.3901 41.3499 47.8601 41.7299C47.7701 41.9999 47.6701 42.2799 47.5601 42.5599C47.4501 42.8399 47.3301 43.1299 47.2101 43.4099C47.04 43.8017 46.8394 44.1795 46.6101 44.5399C46.3887 44.8862 46.1483 45.2201 45.8901 45.5399C45.6446 45.8299 45.3807 46.1038 45.1001 46.3599C44.8615 46.5911 44.6039 46.8018 44.3301 46.9899C44.1176 47.1461 43.8898 47.2801 43.6501 47.3899C43.4827 47.476 43.2982 47.5238 43.1101 47.5299C42.9802 47.5214 42.8554 47.4763 42.7501 47.3999C42.6117 47.3041 42.4843 47.1935 42.3701 47.0699C42.2438 46.9385 42.1362 46.7904 42.0501 46.6299C41.9752 46.4914 41.9341 46.3372 41.9301 46.1799C41.935 45.8515 42.0435 45.533 42.2401 45.2699C42.492 44.9323 42.7841 44.6267 43.1101 44.3599C43.5297 44.0048 43.9669 43.6711 44.4201 43.3599L46.0001 42.2399C46.1301 41.8999 46.2801 41.4999 46.4401 41.0299C46.6001 40.5599 46.8001 40.0299 47.0201 39.3099C46.7936 39.6225 46.5429 39.9168 46.2701 40.1899C45.9985 40.4674 45.7041 40.7216 45.3901 40.9499C45.111 41.1655 44.8092 41.3499 44.4901 41.4999C44.2348 41.6276 43.9552 41.6992 43.6701 41.7099C43.5773 41.7016 43.4881 41.6707 43.4101 41.6199C43.2973 41.549 43.1932 41.4651 43.1001 41.3699C42.9968 41.2641 42.9062 41.1466 42.8301 41.0199C42.7602 40.8836 42.7225 40.733 42.7201 40.5799C42.7304 40.3375 42.7776 40.0981 42.8601 39.8699C42.9731 39.5676 43.1137 39.2764 43.2801 38.9999C43.6871 38.3049 44.2038 37.6802 44.8101 37.1499C45.1382 36.8631 45.4931 36.6086 45.8701 36.3899C46.2536 36.1691 46.6635 35.9978 47.0901 35.8799C47.1863 35.8896 47.2806 35.9131 47.3701 35.9499L47.7201 36.1199L48.0201 36.3099C48.1101 36.3699 48.1501 36.4099 48.1501 36.4199C48.0101 36.4999 47.8401 36.6199 47.6301 36.7599C47.4201 36.8999 47.1901 37.0799 46.9501 37.2699C46.4693 37.6485 46.0149 38.0594 45.5901 38.4999C45.4165 38.6896 45.2592 38.8937 45.1201 39.1099C45.0162 39.264 44.9573 39.4441 44.9501 39.6299C44.9355 39.6754 44.9355 39.7243 44.9501 39.7699C44.9618 39.7907 44.9795 39.8075 45.0009 39.8182C45.0223 39.8289 45.0463 39.833 45.0701 39.8299C45.248 39.822 45.4206 39.7668 45.5701 39.6699C45.7736 39.557 45.9647 39.4229 46.1401 39.2699C46.3401 39.0999 46.5301 38.9099 46.7301 38.7099L47.2901 38.0999C47.4601 37.8999 47.6201 37.7199 47.7501 37.5499C47.8801 37.3799 48.0001 37.2299 48.0701 37.1299C48.1468 37.1696 48.2121 37.228 48.2601 37.2999C48.3491 37.4187 48.4261 37.5459 48.4901 37.6799C48.5706 37.8093 48.6376 37.9467 48.6901 38.0899C48.7368 38.1805 48.7673 38.2787 48.7801 38.3799V38.4399C48.7201 38.6499 48.6301 38.9399 48.5301 39.3199C48.4301 39.6999 48.3001 40.1199 48.1501 40.6099C48.5301 40.2999 48.9101 39.9899 49.2901 39.6099C49.6701 39.2299 50.0601 38.9299 50.4401 38.5499L50.9301 39.0699ZM42.9301 46.3399C43.1229 46.302 43.3003 46.208 43.4401 46.0699C43.6942 45.8585 43.9315 45.6278 44.1501 45.3799C44.4001 45.0899 44.6401 44.7799 44.8801 44.4399C45.1051 44.1222 45.3057 43.7879 45.4801 43.4399C45.1001 43.7199 44.7401 43.9799 44.4201 44.2299C44.1302 44.4468 43.8562 44.6841 43.6001 44.9399C43.3974 45.144 43.2165 45.3685 43.0601 45.6099C42.9437 45.8074 42.8784 46.0308 42.8701 46.2599C42.8701 46.2599 42.9401 46.3399 43.0001 46.3399H42.9301Z" fill="#A9AFC3"/>
<path d="M53 36.9999L52.79 37.5799C52.7167 37.7666 52.6467 37.9666 52.58 38.1799C52.95 37.7499 53.27 37.3999 53.58 37.1799C53.7983 36.9543 54.0286 36.7406 54.27 36.5399C54.4074 36.4165 54.5584 36.3091 54.72 36.2199C54.8048 36.1781 54.8961 36.151 54.99 36.1399C55.1125 36.1547 55.2311 36.192 55.34 36.2499C55.5032 36.3356 55.6602 36.4325 55.81 36.5399C55.9573 36.6436 56.0946 36.7607 56.22 36.8899C56.3118 36.9697 56.3721 37.0796 56.39 37.1999C56.3941 37.2197 56.3941 37.2401 56.39 37.2599C56.3939 37.2965 56.3939 37.3333 56.39 37.3699C56.34 37.5199 56.28 37.6899 56.2 37.8899L55.97 38.5199C55.88 38.7399 55.8 38.9499 55.72 39.1699C55.64 39.3899 55.56 39.5899 55.5 39.7799C55.44 39.9699 55.38 40.1399 55.34 40.2799C55.3003 40.3789 55.2767 40.4835 55.27 40.5899C55.27 40.5899 55.27 40.6399 55.33 40.6399C55.4332 40.6236 55.5319 40.5861 55.62 40.5299C55.7752 40.4343 55.9254 40.3308 56.07 40.2199L56.6 39.8199L57.13 39.3699L57.59 38.9799L57.9 38.7099L58.1 38.9199L58.3 39.1499C58.17 39.2799 58.01 39.4399 57.81 39.6199L57.17 40.1999L56.46 40.7899C56.22 40.9799 55.98 41.1599 55.75 41.3099C55.5419 41.4533 55.3209 41.5771 55.09 41.6799C54.9365 41.7663 54.7657 41.8175 54.59 41.8299C54.4705 41.8231 54.3542 41.7889 54.25 41.7299C54.1074 41.6707 53.9729 41.5934 53.85 41.4999C53.7292 41.4123 53.6214 41.3079 53.53 41.1899C53.4485 41.1021 53.3992 40.9893 53.39 40.8699C53.45 40.6199 53.52 40.3499 53.61 40.0399C53.7 39.7299 53.8 39.4099 53.91 39.0399L54.24 38.0399C54.36 37.7199 54.47 37.4299 54.58 37.1599C54.4734 37.2999 54.3134 37.4799 54.1 37.6999C53.8427 37.9681 53.6022 38.252 53.38 38.5499C53.0746 38.9546 52.7909 39.3752 52.53 39.8099C52.2002 40.3691 51.9095 40.9505 51.66 41.5499C51.6312 41.6155 51.5977 41.679 51.56 41.7399C51.5418 41.7676 51.5163 41.7897 51.4863 41.8039C51.4563 41.818 51.423 41.8235 51.39 41.8199C51.2715 41.8149 51.1555 41.7841 51.05 41.7299C50.9138 41.6681 50.7833 41.5945 50.66 41.5099C50.5201 41.4153 50.3865 41.3118 50.26 41.1999C50.1284 41.0995 50.0078 40.9856 49.9 40.8599C49.9074 40.7586 49.9241 40.6581 49.95 40.5599C49.95 40.3899 50.02 40.1799 50.08 39.9299C50.14 39.6799 50.22 39.3899 50.31 39.0699C50.4 38.7499 50.5 38.4099 50.61 38.0699C50.72 37.7299 50.85 37.3499 50.98 36.9799C51.11 36.6099 51.26 36.2499 51.41 35.9099C51.66 36.0199 51.94 36.1699 52.24 36.3399C52.5163 36.5321 52.771 36.7533 53 36.9999V36.9999Z" fill="#A9AFC3"/>
<path d="M62.2099 38.3499C62.3931 38.1797 62.5667 37.9994 62.7299 37.8099C62.912 37.6152 63.076 37.4043 63.2199 37.1799C63.3696 36.9524 63.4905 36.7072 63.5799 36.4499C63.6036 36.3036 63.6404 36.1597 63.6899 36.0199C63.7388 35.8769 63.7955 35.7367 63.8599 35.5999C63.9111 35.4917 63.9713 35.388 64.0399 35.2899C64.0999 35.2099 64.1599 35.1699 64.1999 35.1699C64.313 35.2373 64.42 35.3143 64.5199 35.3999L64.9499 35.7699L65.3299 36.1299C65.3978 36.1862 65.4553 36.2539 65.4999 36.3299C65.4285 36.5701 65.3914 36.8193 65.3899 37.0699C65.3946 37.2877 65.4146 37.5049 65.4499 37.7199C65.4499 37.9399 65.5099 38.1599 65.5499 38.3999C65.5928 38.6778 65.6128 38.9588 65.6099 39.2399C65.6055 39.4594 65.5753 39.6775 65.5199 39.8899C65.4636 40.1329 65.3505 40.3591 65.1899 40.5499C65.505 40.3734 65.8059 40.1728 66.0899 39.9499C66.3899 39.7299 66.6499 39.5199 66.8799 39.3299L67.6699 38.6299L68.0699 39.0699L67.4299 39.6599C67.1999 39.8599 66.9699 40.0699 66.7199 40.2699L65.9699 40.8499C65.7099 41.0299 65.4599 41.1899 65.2099 41.3399C64.9781 41.4697 64.7375 41.5833 64.4899 41.6799C64.2814 41.7557 64.0618 41.7963 63.8399 41.7999C63.6443 41.7947 63.4511 41.754 63.2699 41.6799C63.0653 41.5926 62.868 41.4889 62.6799 41.3699C62.5079 41.2631 62.347 41.1391 62.1999 40.9999C62.0906 40.9146 62.0074 40.8002 61.9599 40.6699C61.9535 40.647 61.9535 40.6228 61.9599 40.5999L62.0399 40.4699L62.1399 40.3599H62.2099C62.2871 40.3747 62.3613 40.4018 62.4299 40.4399C62.5977 40.5083 62.7794 40.5358 62.9599 40.5199C63.0845 40.5265 63.2077 40.4913 63.3099 40.4199C63.4133 40.3425 63.4986 40.2436 63.5599 40.1299C63.6259 40.0006 63.6731 39.8626 63.6999 39.7199C63.7157 39.557 63.7157 39.3929 63.6999 39.2299C63.6999 38.9799 63.6999 38.7399 63.6999 38.5099C63.6999 38.2799 63.6999 38.0499 63.6199 37.8299L63.2699 38.1999L62.8799 38.5899L62.4799 38.9599L62.1199 39.2899L61.6899 38.8499L62.2099 38.3499Z" fill="#A9AFC3"/>
<path d="M68.5201 41.75C68.3808 41.7351 68.2471 41.6871 68.1301 41.61C67.9578 41.5151 67.7968 41.401 67.6501 41.27C67.5043 41.1461 67.3704 41.0088 67.2501 40.86C67.1575 40.7566 67.0982 40.6276 67.0801 40.49C67.0976 40.2052 67.1479 39.9233 67.2301 39.65C67.3301 39.26 67.4501 38.82 67.6101 38.32C67.7701 37.82 67.9601 37.32 68.1601 36.73C68.3601 36.14 68.5701 35.62 68.7801 35.08H67.5201C67.5096 35.0272 67.5096 34.9728 67.5201 34.92C67.5491 34.848 67.5825 34.7779 67.6201 34.71C67.6539 34.6376 67.6977 34.5703 67.7501 34.51C67.7865 34.4531 67.8386 34.408 67.9001 34.38H69.0501L69.5301 33.26C69.6801 32.92 69.8201 32.63 69.9401 32.39L70.0301 32.18C70.0634 32.099 70.1108 32.0245 70.1701 31.96C70.2434 31.8702 70.3274 31.7897 70.4201 31.72C70.551 31.625 70.6918 31.5446 70.8401 31.48C70.9701 31.41 71.1301 31.34 71.3201 31.26L71.9001 31L72.4001 30.84C72.5022 30.7993 72.6103 30.7756 72.7201 30.77C72.7801 30.77 72.8101 30.77 72.8101 30.77V30.82C72.8101 30.88 72.7101 31.01 72.6101 31.21L72.2601 31.95C72.1201 32.25 71.9701 32.59 71.8001 32.95C71.6301 33.31 71.4501 33.74 71.2801 34.16L73.4101 34.08C73.4701 34.08 73.4901 34.08 73.4701 34.19C73.4325 34.2781 73.3855 34.3619 73.3301 34.44C73.2632 34.5414 73.1897 34.6383 73.1101 34.73C73.0415 34.8111 72.9681 34.888 72.8901 34.96C72.8901 34.96 72.8901 34.96 72.8201 34.96H72.6801H70.9001C70.6901 35.48 70.4801 35.96 70.2901 36.53C70.1001 37.1 69.9201 37.53 69.7601 38.03C69.6001 38.53 69.4801 38.94 69.3901 39.34C69.3074 39.6673 69.2605 40.0026 69.2501 40.34C69.2501 40.34 69.2501 40.39 69.3101 40.39C69.4133 40.3737 69.512 40.3362 69.6001 40.28C69.7535 40.1941 69.9006 40.0972 70.0401 39.99L70.5601 39.6C70.7501 39.46 70.9201 39.32 71.0901 39.18L71.5401 38.79L71.8401 38.53L72.0401 38.74L72.2501 38.97L71.7601 39.44L71.1201 40.02L70.4101 40.61C70.1601 40.8 69.9201 40.98 69.6901 41.13C69.4807 41.2713 69.2599 41.3951 69.0301 41.5C68.8827 41.6233 68.7078 41.7091 68.5201 41.75Z" fill="#A9AFC3"/>
<path d="M76.4699 40.47C76.468 40.4783 76.4682 40.4869 76.4705 40.4951C76.4729 40.5033 76.4772 40.5107 76.4832 40.5167C76.4892 40.5227 76.4967 40.5271 76.5048 40.5294C76.513 40.5317 76.5216 40.532 76.5299 40.53C76.6375 40.5126 76.7399 40.4717 76.8299 40.41C76.9599 40.34 77.1099 40.24 77.2899 40.12L77.8299 39.72C78.0199 39.57 78.1999 39.43 78.3699 39.28L78.8399 38.9L79.1599 38.63L79.3499 38.84L79.5599 39.07L79.0599 39.54C78.8599 39.72 78.6499 39.92 78.4099 40.11C78.1699 40.3 77.9299 40.51 77.6799 40.7C77.4299 40.89 77.1799 41.07 76.9499 41.22C76.7338 41.3561 76.5101 41.4797 76.2799 41.59C76.1172 41.6699 75.9406 41.7175 75.7599 41.73C75.6414 41.725 75.5254 41.6943 75.4199 41.64C75.2971 41.5693 75.1801 41.4891 75.0699 41.4C74.9636 41.3045 74.8725 41.1932 74.7999 41.07C74.729 40.9708 74.6905 40.852 74.6899 40.73C74.7041 40.547 74.7377 40.366 74.7899 40.19C74.8599 39.92 74.9499 39.61 75.0499 39.25C74.8099 39.5985 74.5494 39.9324 74.2699 40.25C74.0099 40.53 73.7799 40.76 73.5599 40.96L72.9999 41.4L72.6499 41.66L72.4799 41.73H72.2999C72.1679 41.7222 72.0387 41.6882 71.9199 41.63C71.7866 41.5584 71.6624 41.4711 71.5499 41.37C71.4318 41.274 71.3305 41.1591 71.2499 41.03C71.1763 40.9277 71.1346 40.806 71.1299 40.68C71.15 40.4594 71.1936 40.2415 71.2599 40.03C71.3499 39.72 71.4599 39.36 71.6099 38.94C71.7599 38.52 71.9199 38.05 72.1199 37.52L72.7499 35.88C72.91 35.9144 73.0671 35.9612 73.2199 36.02L73.7899 36.26C73.9799 36.35 74.1399 36.44 74.2799 36.52C74.4199 36.6 74.4799 36.65 74.4799 36.68C74.4799 36.71 74.4199 36.82 74.3399 36.98L74.0799 37.53C73.9899 37.75 73.8799 37.98 73.7699 38.24C73.6599 38.5 73.5599 38.73 73.4699 38.96C73.3799 39.19 73.2999 39.4 73.2399 39.59C73.1921 39.7222 73.1619 39.86 73.1499 40C73.1499 40 73.2999 39.94 73.4599 39.81C73.6737 39.6276 73.8711 39.4269 74.0499 39.21C74.2899 38.93 74.5499 38.58 74.8499 38.15C75.1899 37.652 75.5004 37.1344 75.7799 36.6L76.0299 35.9C76.0348 35.8753 76.0488 35.8533 76.0692 35.8385C76.0896 35.8236 76.1148 35.817 76.1399 35.82C76.2365 35.8432 76.328 35.8838 76.4099 35.94L76.8599 36.22C77.0068 36.3137 77.1471 36.4173 77.2799 36.53C77.3619 36.5909 77.4329 36.6653 77.4899 36.75C77.4899 36.75 77.4899 36.75 77.4899 36.84C77.4924 36.8767 77.4924 36.9134 77.4899 36.95C77.4299 37.11 77.3599 37.3 77.2899 37.52C77.2199 37.74 77.1299 37.96 77.0499 38.2L76.8099 38.91L76.5999 39.57C76.5399 39.77 76.4899 39.95 76.4499 40.11C76.443 40.2304 76.4498 40.3512 76.4699 40.47V40.47Z" fill="#A9AFC3"/>
<path d="M84.46 40.27C84.46 40.42 84.51 40.49 84.6 40.49C84.7435 40.4866 84.884 40.4489 85.01 40.38C85.1825 40.3037 85.3466 40.2099 85.5 40.1C85.6836 39.9834 85.8606 39.8565 86.03 39.72C86.21 39.58 86.37 39.44 86.53 39.3L86.96 38.92L87.25 38.63C87.31 38.69 87.38 38.75 87.46 38.84C87.54 38.93 87.62 39 87.69 39.07L87.16 39.58L86.53 40.17C86.31 40.37 86.08 40.56 85.84 40.75C85.6095 40.9269 85.3691 41.0905 85.12 41.24C84.9006 41.3794 84.6698 41.4998 84.43 41.6C84.2268 41.6834 84.0096 41.7275 83.79 41.73C83.6455 41.7172 83.5072 41.6654 83.39 41.58C83.2296 41.4779 83.0819 41.357 82.95 41.22C82.8133 41.0842 82.6925 40.9332 82.59 40.77C82.5026 40.6463 82.4507 40.5011 82.44 40.35C82.4256 40.0669 82.4256 39.7832 82.44 39.5L81.67 40.17C81.42 40.38 81.17 40.59 80.92 40.77C80.67 40.95 80.41 41.13 80.14 41.29C79.8741 41.4512 79.5927 41.5852 79.3 41.69C79.2281 41.7252 79.1499 41.7456 79.07 41.75C78.9864 41.7421 78.9067 41.7109 78.84 41.66C78.7376 41.595 78.6436 41.5178 78.56 41.43C78.47 41.3373 78.3927 41.233 78.33 41.12C78.2675 41.021 78.233 40.907 78.23 40.79C78.2367 40.5114 78.2839 40.2352 78.37 39.97C78.4728 39.6478 78.6068 39.3363 78.77 39.04C78.9613 38.7091 79.1751 38.3917 79.41 38.09C79.6677 37.7637 79.9557 37.4624 80.27 37.19C80.6006 36.9064 80.9553 36.6522 81.33 36.43C81.7212 36.2004 82.1372 36.0159 82.57 35.88C82.6813 35.9015 82.789 35.9386 82.89 35.99L83.25 36.18C83.47 35.57 83.71 34.96 83.99 34.34C84.27 33.72 84.56 33.14 84.87 32.57C85.18 32 85.51 31.47 85.87 30.98C86.1708 30.5163 86.505 30.0752 86.87 29.66C87.1697 29.3157 87.5049 29.004 87.87 28.73C88.1486 28.5185 88.469 28.3685 88.81 28.29C88.9584 28.2988 89.1025 28.3434 89.23 28.42C89.3754 28.5112 89.5126 28.6149 89.64 28.73C89.7635 28.8443 89.8742 28.9717 89.97 29.11C90.0485 29.2089 90.1094 29.3205 90.15 29.44C90.1383 29.7668 90.0671 30.0888 89.94 30.39C89.789 30.7993 89.6016 31.1943 89.38 31.57C89.14 31.98 88.85 32.42 88.52 32.88C88.19 33.34 87.84 33.8 87.46 34.27C87.08 34.74 86.68 35.21 86.26 35.68C85.84 36.15 85.42 36.61 85 37.05C84.828 37.6185 84.6878 38.196 84.58 38.78C84.491 39.2715 84.4508 39.7706 84.46 40.27V40.27ZM80.46 39.97C80.7838 39.915 81.0854 39.7694 81.33 39.55C81.7966 39.217 82.2348 38.8457 82.64 38.44C82.7 38.17 82.76 37.89 82.84 37.61C82.92 37.33 83 37.04 83.1 36.75C82.7488 36.99 82.4147 37.2539 82.1 37.54C81.7892 37.8189 81.4953 38.1161 81.22 38.43C80.9917 38.6828 80.7843 38.9537 80.6 39.24C80.4719 39.4098 80.3893 39.6094 80.36 39.82C80.37 39.92 80.41 40 80.48 40L80.46 39.97ZM88.91 29.37C88.7633 29.3942 88.6312 29.4727 88.54 29.59C88.3622 29.7849 88.1985 29.9921 88.05 30.21C87.87 30.48 87.68 30.79 87.48 31.15C87.28 31.51 87.07 31.91 86.86 32.34C86.65 32.77 86.45 33.22 86.24 33.7C86.03 34.18 85.84 34.7 85.65 35.16C86.1 34.61 86.52 34.06 86.92 33.52C87.32 32.98 87.69 32.44 88 32C88.2699 31.5667 88.5105 31.1157 88.72 30.65C88.8744 30.3375 88.9661 29.9978 88.99 29.65C88.99 29.65 88.99 29.57 88.99 29.52C88.99 29.47 89 29.37 88.93 29.37H88.91Z" fill="#A9AFC3"/>
<path d="M87.8299 41.7501C87.7104 41.7433 87.5941 41.709 87.4899 41.6501C87.3493 41.593 87.2178 41.5155 87.0999 41.4201C86.9768 41.3352 86.8687 41.2304 86.7799 41.1101C86.6984 41.0223 86.6491 40.9095 86.6399 40.7901C86.6999 40.5234 86.7799 40.2234 86.8799 39.8901C86.9799 39.5501 87.0899 39.2001 87.2099 38.8901C87.3299 38.5801 87.4499 38.2001 87.5699 37.8901L87.9199 36.9901C88.0199 36.7301 88.1199 36.5201 88.1899 36.3601C88.2599 36.2001 88.3199 36.1201 88.3399 36.1201C88.4348 36.1433 88.5258 36.1804 88.6099 36.2301C88.7499 36.3101 88.8999 36.4001 89.0599 36.5101C89.2103 36.6137 89.3508 36.7309 89.4799 36.8601C89.5313 36.8981 89.5745 36.9459 89.6072 37.0009C89.6398 37.0558 89.6611 37.1168 89.6699 37.1801C89.6739 37.1999 89.6739 37.2203 89.6699 37.2401C89.6738 37.2766 89.6738 37.3135 89.6699 37.3501C89.6699 37.5001 89.5599 37.6701 89.4799 37.8701L89.2499 38.5001L88.9999 39.1501C88.9099 39.3701 88.8399 39.5701 88.7799 39.7601C88.7199 39.9501 88.6599 40.1201 88.6099 40.2601C88.5768 40.3604 88.5566 40.4646 88.5499 40.5701C88.5499 40.5701 88.5499 40.6201 88.6099 40.6201C88.7131 40.6037 88.8118 40.5663 88.8999 40.5101C89.0551 40.4145 89.2053 40.311 89.3499 40.2001L89.8799 39.8001L90.4099 39.3501L90.8699 38.9601L91.1799 38.6901C91.1799 38.7501 91.2999 38.8101 91.3699 38.9001L91.5799 39.1301C91.4499 39.2601 91.2899 39.4201 91.0899 39.6001L90.4499 40.1801L89.7399 40.7701C89.4899 40.9601 89.2599 41.1401 89.0199 41.2901C88.8164 41.4353 88.5986 41.5592 88.3699 41.6601C88.1993 41.7316 88.0144 41.7624 87.8299 41.7501V41.7501ZM91.3499 33.3401C91.3368 33.4021 91.3166 33.4625 91.2899 33.5201C91.2899 33.6101 91.1999 33.7101 91.1499 33.8401C91.0999 33.9701 91.0299 34.0901 90.9699 34.2201L90.7699 34.5901L90.5799 34.8701C90.5199 34.9401 90.4699 34.9801 90.4399 34.9801C90.3058 34.9657 90.1744 34.932 90.0499 34.8801C89.8988 34.8236 89.7518 34.7568 89.6099 34.6801C89.4864 34.6182 89.3692 34.5446 89.2599 34.4601C89.1599 34.3934 89.1099 34.3434 89.1099 34.3101C89.1212 34.1453 89.1584 33.9833 89.2199 33.8301C89.2887 33.6308 89.3722 33.4369 89.4699 33.2501C89.5517 33.0784 89.6487 32.9144 89.7599 32.7601C89.8499 32.6301 89.9299 32.5601 89.9799 32.5601C90.1156 32.5645 90.2488 32.5986 90.3699 32.6601C90.526 32.728 90.6765 32.8083 90.8199 32.9001C90.9528 32.9772 91.0798 33.0641 91.1999 33.1601C91.2999 33.2534 91.3499 33.3134 91.3499 33.3401Z" fill="#A9AFC3"/>
<path d="M92.14 40.3499C92.14 40.5299 92.2 40.6199 92.33 40.6199C92.5446 40.5733 92.7379 40.4573 92.88 40.2899C93.1369 40.0376 93.3711 39.7632 93.58 39.4699C93.5757 39.41 93.5757 39.3498 93.58 39.2899C93.58 39.2899 93.58 39.1999 93.58 39.1599C93.5723 39.0167 93.5723 38.8732 93.58 38.7299C93.6218 38.5385 93.689 38.3535 93.78 38.1799C93.86 38.0199 93.94 37.8599 94.04 37.6999L94.34 37.2599C94.4625 37.1037 94.5962 36.9567 94.74 36.8199V36.8199L94.98 37.1099L95.27 37.4799L95.53 37.8299L95.67 38.0599C95.6671 38.3194 95.6198 38.5765 95.53 38.8199C95.4333 39.0854 95.3093 39.3401 95.16 39.5799C95.5093 39.5654 95.8509 39.4732 96.16 39.3099C96.537 39.1156 96.8758 38.8547 97.16 38.5399L97.37 38.7599L97.58 38.9899C97.3541 39.2291 97.1063 39.4467 96.84 39.6399C96.6182 39.8063 96.3763 39.944 96.12 40.0499C95.8863 40.1519 95.6412 40.2258 95.39 40.2699C95.1363 40.3184 94.8784 40.3419 94.62 40.3399C94.2194 40.7534 93.7614 41.107 93.26 41.3899C93.034 41.5134 92.7961 41.6139 92.55 41.6899C92.3296 41.7582 92.1007 41.7952 91.87 41.7999C91.6764 41.7922 91.4876 41.7372 91.32 41.6399C91.1298 41.5301 90.955 41.3956 90.8 41.2399C90.6532 41.0896 90.5255 40.9217 90.42 40.7399C90.3316 40.5982 90.28 40.4367 90.27 40.2699C90.2708 39.814 90.3313 39.3601 90.45 38.9199C90.56 38.4591 90.7458 38.0197 91 37.6199C91.5685 36.7733 92.4308 36.1676 93.42 35.9199C93.42 35.9199 93.42 35.9199 93.51 35.9199H93.62C93.7136 35.9239 93.804 35.9552 93.88 36.0099C93.9752 36.0687 94.0625 36.1393 94.14 36.2199C94.2127 36.2912 94.2796 36.3681 94.34 36.4499C94.3821 36.49 94.4102 36.5426 94.42 36.5999C94.42 36.5999 94.42 36.6599 94.29 36.7099C94.1809 36.7748 94.0773 36.8484 93.98 36.9299C93.8132 37.0725 93.6561 37.2262 93.51 37.3899C93.2987 37.6396 93.1049 37.9035 92.93 38.1799C92.6499 38.5785 92.4309 39.0167 92.28 39.4799C92.1954 39.7625 92.1483 40.055 92.14 40.3499V40.3499Z" fill="#A9AFC3"/>
<path d="M65.5401 29.1999H49.0001C48.8497 29.1973 48.7062 29.1365 48.5998 29.0301C48.4935 28.9238 48.4326 28.7803 48.4301 28.6299C48.4327 28.4805 48.4939 28.3381 48.6005 28.2333C48.7071 28.1286 48.8506 28.0699 49.0001 28.0699H65.5401C65.6144 28.0686 65.6883 28.0821 65.7574 28.1096C65.8265 28.1372 65.8894 28.1782 65.9425 28.2304C65.9956 28.2825 66.0377 28.3447 66.0665 28.4133C66.0953 28.4819 66.1101 28.5555 66.1101 28.6299C66.1101 28.7811 66.05 28.9261 65.9431 29.033C65.8362 29.1399 65.6912 29.1999 65.5401 29.1999V29.1999Z" fill="#A9AFC3"/>
<path d="M69.1099 0.340088V22.2401H64.3799V0.340088H69.1099Z" fill="#A9AFC3"/>
<path d="M53.4399 13.2701V22.2701H48.7V0.340088H57.13C59.93 0.340088 61.33 1.83009 61.33 4.81009V7.34009C61.33 9.15009 60.69 10.3401 59.4 10.8001C59.954 11.0018 60.423 11.3858 60.7301 11.8891C61.0372 12.3924 61.1641 12.9852 61.09 13.5701V22.2401H56.3499V14.0001C56.3499 13.5401 56.1399 13.3201 55.7099 13.3201L53.4399 13.2701ZM53.4399 3.55009V10.0001H56C56.0849 10.0011 56.1691 9.9838 56.2468 9.94928C56.3245 9.91476 56.3938 9.86387 56.45 9.80009C56.5122 9.73695 56.5612 9.66191 56.5938 9.57944C56.6265 9.49696 56.6422 9.40876 56.6399 9.32009V4.32009C56.642 4.23294 56.6261 4.14629 56.5935 4.06547C56.5608 3.98465 56.512 3.91136 56.45 3.85009C56.4057 3.76673 56.3413 3.69568 56.2628 3.64332C56.1843 3.59096 56.0939 3.55892 56 3.55009H53.4399Z" fill="#A9AFC3"/>
<path d="M37.77 13.2701V22.2701H33V0.340088H41.43C44.23 0.340088 45.63 1.83009 45.63 4.81009V7.34009C45.63 9.15009 44.99 10.3401 43.7 10.8001C44.254 11.0018 44.7231 11.3858 45.0301 11.8891C45.3372 12.3924 45.4641 12.9852 45.39 13.5701V22.2401H40.68V14.0001C40.68 13.5401 40.47 13.3201 40.04 13.3201L37.77 13.2701ZM37.77 3.55009V10.0001H40.28C40.365 10.0011 40.4492 9.9838 40.5269 9.94928C40.6045 9.91476 40.6738 9.86387 40.73 9.80009C40.7923 9.73695 40.8412 9.66191 40.8739 9.57944C40.9065 9.49696 40.9222 9.40876 40.92 9.32009V4.32009C40.922 4.23294 40.9062 4.14629 40.8735 4.06547C40.8408 3.98465 40.792 3.91136 40.73 3.85009C40.6757 3.7834 40.607 3.72987 40.5291 3.69351C40.4511 3.65714 40.366 3.63888 40.28 3.64009L37.77 3.55009Z" fill="#A9AFC3"/>
<path d="M4.74 13.6401V22.2401H0V0.340088H4.74V9.51009H8.5V0.340088H13.23V22.2401H8.5V13.6401H4.74Z" fill="#A9AFC3"/>
<path d="M117.07 22.24H112.33V4.06C112.333 3.88589 112.269 3.71732 112.15 3.59C112.093 3.52363 112.023 3.47045 111.943 3.43417C111.864 3.3979 111.777 3.37941 111.69 3.38H109.86C109.774 3.37879 109.689 3.39705 109.611 3.43342C109.533 3.46979 109.464 3.52332 109.41 3.59C109.348 3.65127 109.299 3.72457 109.266 3.80539C109.234 3.88621 109.218 3.97285 109.22 4.06V22.24H104.48V4.47C104.48 1.49 105.88 0 108.68 0H112.88C115.673 0 117.07 1.49 117.07 4.47V22.24Z" fill="#A9AFC3"/>
<path d="M101 4.47V18.11C101 21.09 99.6001 22.58 96.8001 22.58H92.3001C89.5001 22.58 88.1101 21.09 88.1101 18.11V4.47C88.1101 1.47 89.5001 0 92.3001 0H96.8001C99.6001 0 101 1.49 101 4.47ZM96.2901 18.65V3.89C96.2935 3.71589 96.2289 3.54732 96.1101 3.42C96.0528 3.35491 95.9819 3.30325 95.9024 3.26868C95.8229 3.23411 95.7368 3.21749 95.6501 3.22H93.5201C93.4333 3.21679 93.347 3.23309 93.2674 3.2677C93.1878 3.30232 93.1169 3.35436 93.0601 3.42C92.9386 3.54632 92.8705 3.7147 92.8701 3.89V18.65C92.8705 18.8253 92.9386 18.9937 93.0601 19.12C93.1164 19.1869 93.1869 19.2405 93.2665 19.2768C93.346 19.3131 93.4327 19.3313 93.5201 19.33H95.6501C95.7374 19.3306 95.8239 19.3121 95.9033 19.2758C95.9828 19.2396 96.0533 19.1864 96.1101 19.12C96.2289 18.9927 96.2935 18.8241 96.2901 18.65V18.65Z" fill="#A9AFC3"/>
<path d="M84.7801 6.09H80.2801V4.37C80.281 4.19334 80.217 4.0225 80.1001 3.89C80.0412 3.82694 79.97 3.77665 79.8909 3.74225C79.8117 3.70784 79.7264 3.69006 79.6401 3.69H77.7801C77.6936 3.68883 77.6079 3.70605 77.5286 3.74053C77.4493 3.77501 77.3782 3.82596 77.3201 3.89C77.2004 4.02152 77.1329 4.1922 77.1301 4.37V8.26C77.1305 8.4353 77.1986 8.60368 77.3201 8.73C77.3764 8.79691 77.4469 8.85046 77.5265 8.88678C77.606 8.9231 77.6927 8.94128 77.7801 8.94H80.7801C83.5934 8.98 85.0001 10.4667 85.0001 13.4V18.11C85.0001 21.09 83.6001 22.58 80.8001 22.58H76.8001C74.0001 22.58 72.6001 21.09 72.6001 18.11V15.84H77.1001V18.28C77.1005 18.4553 77.1686 18.6237 77.2901 18.75C77.3469 18.8156 77.4177 18.8677 77.4974 18.9023C77.577 18.9369 77.6633 18.9532 77.7501 18.95H79.8501C79.9354 18.9532 80.0203 18.9368 80.0983 18.9021C80.1763 18.8675 80.2453 18.8154 80.3001 18.75C80.3621 18.6887 80.4109 18.6154 80.4436 18.5346C80.4763 18.4538 80.4921 18.3672 80.4901 18.28V14C80.4923 13.8212 80.4241 13.6488 80.3001 13.52C80.2439 13.4562 80.1746 13.4053 80.097 13.3708C80.0193 13.3363 79.9351 13.319 79.8501 13.32H76.8501C74.0501 13.32 72.6501 11.83 72.6501 8.85V4.47C72.6368 1.49 74.0301 0 76.8301 0H80.5901C83.3768 0 84.7734 1.49 84.7801 4.47V6.09Z" fill="#A9AFC3"/>
<path d="M25.32 0C28.1067 0 29.5033 1.49 29.51 4.47V22.24H24.78V14.89H21.36V22.24H16.62V4.47C16.62 1.49 18.02 0 20.82 0H25.32ZM21.32 11.24H24.74V3.89C24.7396 3.7147 24.6715 3.54632 24.55 3.42C24.4932 3.35436 24.4223 3.30232 24.3427 3.2677C24.2631 3.23309 24.1767 3.21679 24.09 3.22H22C21.9133 3.21749 21.8272 3.23411 21.7477 3.26868C21.6682 3.30325 21.5973 3.35491 21.54 3.42C21.4212 3.54732 21.3566 3.71589 21.36 3.89L21.32 11.24Z" fill="#A9AFC3"/>
</g>
<defs>
<clipPath id="clip0">
<rect width="117.07" height="47.53" fill="white"/>
</clipPath>
</defs>
</svg>
