<svg width="67" height="91" viewBox="0 0 67 91" fill="none" xmlns="http://www.w3.org/2000/svg">
<g  clip-path="url(#clip0)">
<path d="M49.8601 69.49H52.8601V90.27H49.8601V69.49Z" fill="#A9AFC3"/>
<path d="M36 69.49H43.24C45.3 69.49 46.33 70.4633 46.33 72.41V87.35C46.33 89.3033 45.3 90.2767 43.24 90.27H36V69.49ZM43.29 87V72.81C43.3253 72.534 43.2538 72.2549 43.09 72.03C42.8512 71.8817 42.5693 71.8183 42.29 71.85H39V87.92H42.29C42.5705 87.9495 42.8527 87.8825 43.09 87.73C43.2417 87.5184 43.3127 87.2594 43.29 87Z" fill="#A9AFC3"/>
<path d="M29.5399 69.49H32.5399V87.35C32.5399 89.3033 31.4999 90.2767 29.4199 90.27H25.7599C23.6799 90.27 22.6399 89.2967 22.6399 87.35V69.49H25.6399V86.89C25.6066 87.1659 25.6779 87.4442 25.8399 87.67C26.0787 87.8182 26.3606 87.8817 26.6399 87.85H28.5299C28.8126 87.8865 29.0992 87.8228 29.3399 87.67C29.4889 87.4389 29.5526 87.163 29.5199 86.89L29.5399 69.49Z" fill="#A9AFC3"/>
<path d="M20.8499 69.49V71.91H17.3599V90.27H14.3599V71.91H10.8899V69.49H20.8499Z" fill="#A9AFC3"/>
<path d="M59.5199 69.49H63.2099C65.2599 69.49 66.2899 70.49 66.2899 72.41V87.35C66.2899 89.35 65.2899 90.27 63.2099 90.27H59.5199C57.4399 90.27 56.3999 89.2967 56.3999 87.35V72.41C56.3999 70.4567 57.4399 69.4834 59.5199 69.49ZM63.2999 86.89V72.89C63.3371 72.6154 63.2692 72.3368 63.1099 72.11C62.872 71.959 62.5903 71.8921 62.3099 71.92H60.3799C60.24 71.8592 60.085 71.8419 59.9351 71.8703C59.7852 71.8988 59.6474 71.9717 59.5395 72.0796C59.4316 72.1875 59.3587 72.3253 59.3302 72.4752C59.3018 72.6251 59.3191 72.7801 59.3799 72.92V86.92C59.3191 87.0599 59.3018 87.2149 59.3302 87.3648C59.3587 87.5147 59.4316 87.6526 59.5395 87.7604C59.6474 87.8683 59.7852 87.9412 59.9351 87.9697C60.085 87.9982 60.24 87.9809 60.3799 87.92H62.3099C62.5891 87.9501 62.8705 87.8868 63.1099 87.74C63.1967 87.6182 63.2583 87.4802 63.2909 87.3343C63.3235 87.1883 63.3266 87.0372 63.2999 86.89V86.89Z" fill="#A9AFC3"/>
<path d="M6.44 86.89V81.81C6.48192 81.5271 6.41782 81.2386 6.26 81C6.03055 80.8467 5.75427 80.7794 5.48 80.81H3C1 80.81 0 79.81 0 77.81V72.41C0 70.4567 1.03 69.4834 3.09 69.49H6.34C8.4 69.49 9.43 70.4634 9.43 72.41V75.47H6.43V72.88C6.46533 72.604 6.39378 72.325 6.23 72.1C5.99208 71.949 5.71041 71.8821 5.43 71.91H4C3.71949 71.8805 3.4373 71.9475 3.2 72.1C3.03622 72.325 2.96467 72.604 3 72.88V77.49C2.96467 77.766 3.03622 78.0451 3.2 78.27C3.43884 78.4183 3.72068 78.4817 4 78.45H6.44C8.44 78.45 9.49 79.45 9.49 81.38V87.38C9.49 89.3334 8.45 90.3067 6.37 90.3H3.15C1.09 90.3 0.07 89.3 0.07 87.38V84.38H3.07V86.97C3.03147 87.2462 3.10333 87.5265 3.27 87.75C3.50482 87.899 3.78381 87.9626 4.06 87.93H5.46C5.73303 87.9627 6.00892 87.8991 6.24 87.75C6.41545 87.5 6.48714 87.1918 6.44 86.89V86.89Z" fill="#A9AFC3"/>
<path d="M57.0601 63.1401H60.0601V64.1401H55.8301V53.1201H60.0001V54.1701H57.0601V57.9001H59.4501V59.0001H57.0601V63.1401Z" fill="#A9AFC3"/>
<path d="M54.76 53.1201V54.1701H53V64.1701H51.77V54.1701H50V53.1201H54.76Z" fill="#A9AFC3"/>
<path d="M49.81 54.1701H46.72V58.0801H49.1V59.1301H46.72V64.1901H45.49V53.1201H49.81V54.1701Z" fill="#A9AFC3"/>
<path d="M42.9999 64.1901L42.5399 61.3801H40.3099L39.8999 64.1901H38.6699L40.3999 53.1201H42.3399L44.2399 64.1901H42.9999ZM40.4399 60.3301H42.3799L41.3799 53.9701L40.4399 60.3301Z" fill="#A9AFC3"/>
<path d="M16.9 53.1201H18V64.1901H16.68L14.39 55.6101V64.1901H13.27V53.1201H14.69L16.9 61.3901V53.1201Z" fill="#A9AFC3"/>
<path d="M10.79 64.1901L10.33 61.3801H8.08995L7.67995 64.1901H6.44995L8.16995 53.1201H10.12L12 64.1901H10.79ZM8.22995 60.3301H10.17L9.13995 54.0001L8.22995 60.3301Z" fill="#A9AFC3"/>
<path d="M4.00011 53.1201H5.20011V64.1901H4.00011V59.1901H1.59011V64.1901H0.360107V53.1201H1.59011V58.1201H4.00011V53.1201Z" fill="#A9AFC3"/>
<path d="M61.4399 53.1199H64.9999C65.19 53.0933 65.3837 53.1111 65.5657 53.1721C65.7477 53.233 65.913 53.3354 66.0487 53.4711C66.1845 53.6068 66.2868 53.7722 66.3478 53.9542C66.4087 54.1362 66.4266 54.3298 66.3999 54.5199V62.7799C66.4283 62.9707 66.4117 63.1655 66.3515 63.3488C66.2914 63.5321 66.1893 63.6989 66.0533 63.8358C65.9174 63.9727 65.7514 64.076 65.5685 64.1374C65.3857 64.1989 65.191 64.2169 64.9999 64.1899H61.4399V53.1199ZM65.1199 62.5899V54.7199C65.1416 54.5596 65.1062 54.3968 65.0199 54.2599C64.883 54.1836 64.7257 54.1521 64.5699 54.1699H62.6699V63.1699H64.5699C64.7289 63.166 64.8813 63.1058 64.9999 62.9999C65.0899 62.9999 65.1199 62.8199 65.1199 62.5899V62.5899Z" fill="#A9AFC3"/>
<path d="M20 53.1199H23.51C23.7001 53.0933 23.8937 53.1111 24.0757 53.1721C24.2577 53.233 24.4231 53.3354 24.5588 53.4711C24.6945 53.6068 24.7969 53.7722 24.8578 53.9542C24.9188 54.1362 24.9366 54.3298 24.91 54.5199V62.7799C24.9383 62.9707 24.9218 63.1655 24.8616 63.3488C24.8014 63.5321 24.6993 63.6989 24.5634 63.8358C24.4275 63.9727 24.2615 64.076 24.0786 64.1374C23.8957 64.1989 23.701 64.2169 23.51 64.1899H20V53.1199ZM23.68 62.5899V54.7199C23.7016 54.5596 23.6662 54.3968 23.58 54.2599C23.4431 54.1836 23.2857 54.1521 23.13 54.1699H21.23V63.1699H23.13C23.2871 63.1908 23.4465 63.1554 23.58 63.0699C23.63 62.9999 23.66 62.8199 23.66 62.5899H23.68Z" fill="#A9AFC3"/>
<path d="M34.1099 59.5599V64.1899H32.8999V53.1199H36.1199C36.3107 53.0916 36.5055 53.1081 36.6888 53.1683C36.8721 53.2285 37.0389 53.3306 37.1758 53.4665C37.3127 53.6024 37.416 53.7685 37.4775 53.9513C37.5389 54.1342 37.5569 54.3289 37.5299 54.5199V58.1499C37.5299 58.9999 37.1599 59.4599 36.4299 59.5399L38.0999 64.1899H36.7799L35.1599 59.5599H34.1099ZM34.1099 54.1699V58.5099H35.7699C36.0099 58.5099 36.1599 58.5099 36.2199 58.4099C36.2799 58.3099 36.3199 58.1999 36.3199 57.9599V54.7199C36.3415 54.5596 36.3061 54.3968 36.2199 54.2599C36.084 54.1809 35.9257 54.1493 35.7699 54.1699H34.1099Z" fill="#A9AFC3"/>
<path d="M31.2099 56.3899H29.9999V54.7199C30.0215 54.5596 29.9861 54.3968 29.8999 54.2599C29.7625 54.1849 29.6056 54.1535 29.4499 54.1699H28.4499C28.2941 54.1493 28.1358 54.1809 27.9999 54.2599C27.9137 54.3968 27.8783 54.5596 27.8999 54.7199V62.5999C27.879 62.757 27.9144 62.9165 27.9999 63.0499C28.1305 63.1424 28.2914 63.1817 28.4499 63.1599H29.4499C29.6082 63.177 29.7674 63.1381 29.8999 63.0499C29.9854 62.9165 30.0208 62.757 29.9999 62.5999V60.9299H31.2299V62.7999C31.2565 62.9913 31.2383 63.1862 31.1768 63.3694C31.1154 63.5526 31.0123 63.719 30.8757 63.8557C30.739 63.9923 30.5726 64.0954 30.3894 64.1568C30.2062 64.2183 30.0113 64.2365 29.8199 64.2099H28.0799C27.8885 64.2365 27.6936 64.2183 27.5104 64.1568C27.3272 64.0954 27.1608 63.9923 27.0242 63.8557C26.8875 63.719 26.7844 63.5526 26.723 63.3694C26.6615 63.1862 26.6433 62.9913 26.6699 62.7999V54.5199C26.6429 54.3289 26.6609 54.1342 26.7224 53.9513C26.7838 53.7685 26.8871 53.6024 27.024 53.4665C27.1609 53.3306 27.3277 53.2285 27.511 53.1683C27.6943 53.1081 27.8891 53.0916 28.0799 53.1199H29.7999C29.9907 53.0916 30.1856 53.1081 30.3689 53.1683C30.5522 53.2285 30.7189 53.3306 30.8558 53.4665C30.9927 53.6024 31.096 53.7685 31.1575 53.9513C31.2189 54.1342 31.2369 54.3289 31.2099 54.5199V56.3899Z" fill="#A9AFC3"/>
<path d="M43.55 34.5601V31.5001C43.5694 31.3354 43.5305 31.1691 43.44 31.0301C43.3025 30.9363 43.1349 30.8971 42.97 30.9201H41.49C41.2459 30.958 40.9962 30.9384 40.7609 30.863C40.5256 30.7876 40.3112 30.6584 40.1345 30.4856C39.9579 30.3128 39.8239 30.1013 39.7433 29.8677C39.6627 29.6342 39.6376 29.385 39.67 29.1401V25.8401C39.67 24.6601 40.29 24.0801 41.53 24.0801H43.53C44.77 24.0801 45.39 24.6601 45.39 25.8401V27.6801H43.53V26.1201C43.5522 25.9538 43.5092 25.7854 43.41 25.6501C43.2686 25.5565 43.0981 25.5174 42.93 25.5401H42.09C41.922 25.5174 41.7514 25.5565 41.61 25.6501C41.5109 25.7854 41.4679 25.9538 41.49 26.1201V28.9001C41.4689 29.0663 41.5118 29.2343 41.61 29.3701C41.7534 29.459 41.9222 29.4977 42.09 29.4801H43.55C44.77 29.4801 45.39 30.0601 45.39 31.2401V34.8401C45.39 36.0101 44.76 36.6001 43.51 36.6001H41.57C40.33 36.6001 39.71 36.0101 39.71 34.8401V33.0001H41.53V34.5601C41.5089 34.7263 41.5518 34.8943 41.65 35.0301C41.7934 35.119 41.9622 35.1577 42.13 35.1401H43C43.0808 35.1664 43.1672 35.1699 43.2498 35.1501C43.3324 35.1303 43.4079 35.0881 43.468 35.028C43.528 34.968 43.5703 34.8925 43.5901 34.8099C43.6098 34.7273 43.6064 34.6408 43.58 34.5601H43.55Z" fill="#A9AFC3"/>
<path d="M25.0501 6.1499H26.8501V18.6699H25.0501V13.1699H22.3901V18.6699H20.5901V6.1499H22.3901V11.7099H25.0501V6.1499Z" fill="#A9AFC3"/>
<path d="M12.0801 37.35C11.8812 37.35 11.6904 37.271 11.5497 37.1303C11.4091 36.9897 11.3301 36.7989 11.3301 36.6V0H47.9201C48.119 0 48.3098 0.0790176 48.4504 0.21967C48.5911 0.360322 48.6701 0.551088 48.6701 0.75C48.6701 0.948912 48.5911 1.13968 48.4504 1.28033C48.3098 1.42098 48.119 1.5 47.9201 1.5H12.8301V36.6C12.8275 36.7981 12.7476 36.9874 12.6075 37.1275C12.4674 37.2676 12.2782 37.3474 12.0801 37.35V37.35Z" fill="#A9AFC3"/>
<path d="M55.2999 43.9999H18.7C18.501 43.9999 18.3103 43.9209 18.1696 43.7802C18.029 43.6396 17.95 43.4488 17.95 43.2499C17.95 43.051 18.029 42.8602 18.1696 42.7196C18.3103 42.5789 18.501 42.4999 18.7 42.4999H53.7999V7.37988C53.7999 7.18097 53.879 6.9902 54.0196 6.84955C54.1603 6.7089 54.351 6.62988 54.5499 6.62988C54.7489 6.62988 54.9396 6.7089 55.0803 6.84955C55.2209 6.9902 55.2999 7.18097 55.2999 7.37988V43.9999Z" fill="#A9AFC3"/>
<path d="M12.08 44.0001C11.9812 44.0023 11.883 43.9839 11.7918 43.946C11.7005 43.9081 11.6182 43.8516 11.55 43.7801C11.4792 43.7111 11.423 43.6287 11.3846 43.5377C11.3462 43.4467 11.3264 43.3489 11.3264 43.2501C11.3264 43.1513 11.3462 43.0535 11.3846 42.9625C11.423 42.8715 11.4792 42.789 11.55 42.7201L54 0.220091C54.1422 0.0876107 54.3302 0.0154875 54.5245 0.0189157C54.7188 0.0223439 54.9042 0.101056 55.0416 0.238469C55.179 0.375882 55.2577 0.561267 55.2612 0.755568C55.2646 0.949869 55.1925 1.13792 55.06 1.28009L12.61 43.7501C12.5433 43.8257 12.4619 43.8868 12.3708 43.9298C12.2797 43.9728 12.1807 43.9967 12.08 44.0001V44.0001Z" fill="#A9AFC3"/>
</g>
<defs>
<clipPath id="clip0">
<rect width="66.35" height="90.27" fill="white"/>
</clipPath>
</defs>
</svg>
