<svg width="103" height="65" viewBox="0 0 103 65" fill="none" xmlns="http://www.w3.org/2000/svg">
<g  clip-path="url(#clip0)">
<path d="M95.91 43.28C95.5817 48.7445 93.1822 53.8783 89.2005 57.6352C85.2187 61.3921 79.9544 63.4895 74.48 63.5H8.48V43.28H7V65H74.5C80.3846 65.0091 86.0488 62.7624 90.3271 58.7222C94.6055 54.6819 97.1725 49.1555 97.5 43.28H95.91Z" fill="#A9AFC3"/>
<path d="M66.8901 48.75H68.2101V58.69H66.7601L64.6701 51.51V58.69H63.3501V48.75H64.8601L66.8601 55.75L66.8901 48.75Z" fill="#A9AFC3"/>
<path d="M61.86 51.66H60.42V50.34C60.434 50.2085 60.3983 50.0765 60.32 49.97C60.2078 49.8962 60.0733 49.8643 59.94 49.88H59.13C58.9967 49.8643 58.8621 49.8962 58.75 49.97C58.6716 50.0765 58.636 50.2085 58.65 50.34V57.12C58.636 57.2515 58.6716 57.3835 58.75 57.49C58.8621 57.5638 58.9967 57.5957 59.13 57.58H59.94C60.0733 57.5957 60.2078 57.5638 60.32 57.49C60.3983 57.3835 60.434 57.2515 60.42 57.12V54.69H59.62V53.58H61.86V57.29C61.86 58.23 61.37 58.7 60.38 58.7H58.69C57.69 58.7 57.21 58.23 57.21 57.29V50.15C57.21 49.22 57.7 48.75 58.69 48.75H60.38C61.38 48.75 61.86 49.22 61.86 50.15V51.66Z" fill="#A9AFC3"/>
<path d="M54.0801 48.75H55.5101V58.69H54.0801V48.75Z" fill="#A9AFC3"/>
<path d="M51.09 57.07V54.64C51.109 54.5761 51.1103 54.5083 51.094 54.4437C51.0776 54.3791 51.0441 54.3202 50.9969 54.2731C50.9498 54.226 50.8909 54.1924 50.8263 54.1761C50.7617 54.1597 50.6939 54.161 50.63 54.18H49.45C49.256 54.2114 49.0573 54.1969 48.8699 54.1378C48.6825 54.0786 48.5115 53.9765 48.3706 53.8395C48.2297 53.7025 48.1228 53.5344 48.0585 53.3487C47.9941 53.163 47.9741 52.9648 48 52.77V50.15C48 49.22 48.49 48.75 49.47 48.75H51C52 48.75 52.47 49.22 52.47 50.15V51.61H51.07V50.37C51.0928 50.2423 51.0679 50.1106 51 50C50.8841 49.9262 50.7465 49.8945 50.61 49.91H49.95C49.8167 49.8943 49.6821 49.9262 49.57 50C49.5288 50.0515 49.4987 50.1109 49.4815 50.1746C49.4643 50.2382 49.4604 50.3048 49.47 50.37V52.58C49.4604 52.6452 49.4643 52.7118 49.4815 52.7754C49.4987 52.8391 49.5288 52.8985 49.57 52.95C49.6821 53.0238 49.8167 53.0557 49.95 53.04H51.11C52.11 53.04 52.57 53.5 52.57 54.43V57.29C52.57 58.22 52.07 58.69 51.07 58.69H49.52C48.52 58.69 48.04 58.22 48.04 57.29V55.83H49.48V57.07C49.466 57.2015 49.5017 57.3335 49.58 57.44C49.6921 57.5138 49.8267 57.5457 49.96 57.53H50.63C50.6939 57.549 50.7617 57.5503 50.8263 57.5339C50.8909 57.5176 50.9498 57.484 50.9969 57.4369C51.0441 57.3898 51.0776 57.3309 51.094 57.2663C51.1103 57.2017 51.109 57.1339 51.09 57.07V57.07Z" fill="#A9AFC3"/>
<path d="M44.23 57.53H47.1V58.69H42.79V48.75H47V49.91H44.23V53H46.52V54.16H44.23V57.53Z" fill="#A9AFC3"/>
<path d="M36.28 48.75H39.74C40.74 48.75 41.22 49.22 41.22 50.15V57.29C41.22 58.22 40.73 58.69 39.74 58.69H36.28V48.75ZM39.77 57.1V50.34C39.7869 50.2098 39.7548 50.0779 39.68 49.97C39.5679 49.8962 39.4333 49.8643 39.3 49.88H37.73V57.56H39.3C39.4333 57.5757 39.5679 57.5438 39.68 57.47C39.7557 57.3625 39.7879 57.2303 39.77 57.1V57.1Z" fill="#A9AFC3"/>
<path d="M10.44 39.1901C10.4384 39.2036 10.4399 39.2173 10.4444 39.2302C10.4488 39.2431 10.4561 39.2547 10.4658 39.2644C10.4754 39.274 10.4871 39.2813 10.5 39.2858C10.5128 39.2902 10.5265 39.2917 10.54 39.2901C10.7109 39.2575 10.8718 39.1856 11.01 39.0801C11.2757 38.9205 11.5328 38.7469 11.78 38.5601L12.69 37.8501L13.61 37.0701C13.91 36.8201 14.18 36.5801 14.41 36.3701L14.96 35.8801L15.32 36.2601L15.71 36.6901C15.45 36.9201 15.15 37.2101 14.79 37.5401C14.43 37.8701 14.06 38.2201 13.65 38.5401C13.24 38.8601 12.83 39.2501 12.39 39.6101C11.95 39.9701 11.54 40.2701 11.13 40.5501C10.7526 40.8003 10.3583 41.0242 9.95005 41.2201C9.64153 41.3835 9.29909 41.4725 8.95005 41.4801C8.73534 41.4793 8.52232 41.4421 8.32005 41.3701C8.09385 41.3036 7.88076 41.1987 7.69005 41.0601C7.50743 40.9357 7.34831 40.78 7.22005 40.6001C7.1079 40.421 7.05539 40.2109 7.07005 40.0001C7.07005 39.9201 7.07005 39.8201 7.07005 39.7001C7.05635 39.5404 7.05635 39.3798 7.07005 39.2201C7.07005 39.0201 7.14005 38.7901 7.20005 38.5101C7.26005 38.2301 7.36005 37.8801 7.49005 37.5101C7.14005 37.8801 6.73005 38.2601 6.26005 38.6701C5.79005 39.0801 5.26005 39.4501 4.78005 39.8101C4.30005 40.1701 3.78005 40.4901 3.22005 40.8101C2.75635 41.0709 2.27126 41.2917 1.77005 41.4701H1.64005H1.54005C1.38866 41.4536 1.24405 41.3985 1.12005 41.3101C0.931193 41.1947 0.759511 41.0533 0.610045 40.8901C0.436041 40.7154 0.287878 40.5167 0.170045 40.3001C0.0566356 40.0915 -0.00186448 39.8575 4.53031e-05 39.6201C4.53031e-05 39.5601 0.0300453 39.3501 0.0900453 38.9901C0.194498 38.5184 0.348694 38.0592 0.550045 37.6201C0.839146 36.9645 1.19077 36.3382 1.60005 35.7501C2.14638 34.967 2.78423 34.252 3.50005 33.6201C3.92316 33.2607 4.36728 32.9268 4.83005 32.6201C5.24338 32.3401 5.70338 32.0601 6.21005 31.7801C6.72662 31.494 7.27328 31.2659 7.84005 31.1001C7.85966 31.1057 7.88043 31.1057 7.90005 31.1001C7.90005 31.1001 7.90005 31.1001 7.97005 31.1001C8.12576 31.1531 8.27638 31.22 8.42005 31.3001L8.95005 31.5801C9.12005 31.6801 9.27005 31.7801 9.41005 31.8801C9.50834 31.9504 9.59592 32.0346 9.67005 32.1301V32.1801C9.18924 32.4168 8.72781 32.691 8.29005 33.0001C7.87005 33.3201 7.49005 33.6101 7.16005 33.8801C6.83005 34.1501 6.43005 34.5301 6.10005 34.8801C5.47297 35.466 4.93404 36.1397 4.50005 36.8801C4.28209 37.2213 4.13265 37.6017 4.06005 38.0001C4.06005 38.1801 4.13005 38.2701 4.28005 38.2701C4.47815 38.2544 4.66988 38.1928 4.84005 38.0901C5.10738 37.9442 5.36462 37.7805 5.61005 37.6001C5.90005 37.3901 6.21005 37.1501 6.55005 36.8701L7.62005 36.0001C7.97028 35.7337 8.30421 35.4465 8.62005 35.1401C8.91131 34.8644 9.18833 34.574 9.45005 34.2701C9.72141 33.9582 9.96563 33.6236 10.18 33.2701V33.2701C10.3302 33.393 10.4646 33.5341 10.58 33.6901C10.72 33.8901 10.86 34.1001 10.99 34.3301C11.1111 34.5497 11.2179 34.7769 11.31 35.0101C11.387 35.1667 11.4345 35.3362 11.45 35.5101C11.2307 35.9458 11.0435 36.397 10.89 36.8601C10.7677 37.211 10.6643 37.5682 10.58 37.9301C10.5222 38.1904 10.4821 38.4543 10.46 38.7201C10.45 38.9101 10.44 39.0801 10.44 39.1901Z" fill="#A9AFC3"/>
<path d="M16.29 41.7601C16.0627 41.7492 15.8406 41.6877 15.64 41.5801C15.3771 41.4428 15.1291 41.2786 14.9 41.0901C14.6314 40.87 14.3837 40.6256 14.16 40.3601C13.9295 40.091 13.7314 39.7956 13.57 39.4801C13.4988 39.3575 13.4545 39.2211 13.44 39.0801C13.4272 38.8903 13.4272 38.6999 13.44 38.5101C13.4402 37.896 13.5346 37.2855 13.72 36.7001C13.8961 36.1068 14.1411 35.5363 14.45 35.0001C14.7875 34.4463 15.1831 33.9301 15.63 33.4601C16.08 32.9868 16.5833 32.5673 17.13 32.2101C17.6688 31.8631 18.2503 31.5875 18.86 31.3901C19.4635 31.1917 20.0947 31.0905 20.73 31.0901C20.871 31.1047 21.0056 31.1564 21.12 31.2401C21.3078 31.358 21.4851 31.4918 21.65 31.6401C21.84 31.8101 22.03 32.0001 22.23 32.2101C22.418 32.4173 22.5949 32.6342 22.76 32.8601C22.9114 33.0561 23.0421 33.2672 23.15 33.4901C23.2401 33.6601 23.2913 33.8479 23.3 34.0401C23.2047 34.3005 23.0341 34.5267 22.81 34.6901C22.5009 34.9476 22.1657 35.1721 21.81 35.3601C21.4355 35.5706 21.04 35.7416 20.63 35.8701C20.2837 35.9981 19.919 36.069 19.55 36.0801C19.37 36.0801 19.28 36.0801 19.28 35.9201C19.3095 35.7306 19.3928 35.5536 19.52 35.4101L20.05 34.6601C20.244 34.4018 20.421 34.1313 20.58 33.8501C20.7188 33.645 20.8016 33.4071 20.82 33.1601C20.8246 33.0776 20.7998 32.9961 20.75 32.9301C20.7287 32.8971 20.6988 32.8704 20.6637 32.8528C20.6285 32.8352 20.5892 32.8274 20.55 32.8301C20.2773 32.8505 20.0198 32.9634 19.82 33.1501C19.5352 33.4 19.2802 33.6818 19.06 33.9901C18.7896 34.3695 18.5457 34.7671 18.33 35.1801C18.1022 35.6323 17.8986 36.0963 17.72 36.5701C17.5593 37.0387 17.4257 37.5161 17.32 38.0001C17.2223 38.4268 17.1687 38.8624 17.16 39.3001C17.1504 39.3914 17.1647 39.4837 17.2015 39.5679C17.2384 39.652 17.2964 39.7251 17.37 39.7801C17.5629 39.8844 17.7811 39.9329 18 39.9201C18.7025 39.9216 19.3997 39.7998 20.06 39.5601C20.7374 39.3063 21.3874 38.9847 22 38.6001C22.6054 38.221 23.1835 37.8 23.73 37.3401C24.28 36.8801 24.8 36.4101 25.29 35.9501C25.4178 36.0957 25.5584 36.2295 25.71 36.3501C25.8497 36.4517 25.9803 36.5655 26.1 36.6901C25.4412 37.3952 24.7434 38.0629 24.01 38.6901C23.289 39.2985 22.5123 39.8376 21.69 40.3001C20.88 40.7603 20.0214 41.1293 19.13 41.4001C18.2066 41.6611 17.2493 41.7824 16.29 41.7601Z" fill="#A9AFC3"/>
<path d="M34.2 39.19C34.2 39.26 34.2 39.2901 34.3 39.2901C34.4708 39.2575 34.6317 39.1856 34.77 39.0801C35.0323 38.9202 35.2859 38.7466 35.53 38.5601C35.82 38.3501 36.12 38.11 36.44 37.85L37.37 37.07C37.67 36.82 37.93 36.58 38.17 36.37L38.72 35.8801L39.08 36.26L39.46 36.69L38.55 37.5401C38.2 37.8701 37.82 38.2201 37.41 38.5401C37 38.8601 36.58 39.2501 36.15 39.6101C35.72 39.9701 35.29 40.27 34.88 40.55C34.5073 40.8023 34.1162 41.0263 33.71 41.2201C33.4015 41.3835 33.059 41.4725 32.71 41.48C32.4985 41.4799 32.2886 41.4427 32.09 41.37C31.8638 41.3035 31.6507 41.1987 31.46 41.0601C31.2752 40.9384 31.1156 40.7822 30.99 40.6C30.8616 40.423 30.7949 40.2087 30.8 39.9901C30.8 39.9101 30.8 39.81 30.8 39.69C30.7863 39.5303 30.7863 39.3698 30.8 39.21C30.8309 38.9713 30.8743 38.7343 30.93 38.5C30.99 38.22 31.09 37.87 31.21 37.5C30.8278 37.9082 30.4239 38.2954 30 38.66C29.53 39.06 29 39.44 28.51 39.8C28.0096 40.1631 27.4888 40.497 26.95 40.8C26.4881 41.0645 26.0027 41.2854 25.5 41.46H25.38H25.28C25.1282 41.4454 24.9831 41.3901 24.86 41.3C24.6679 41.185 24.4929 41.0436 24.34 40.8801C24.1723 40.7024 24.0278 40.5041 23.91 40.2901C23.7947 40.0854 23.7328 39.8549 23.73 39.62C23.73 39.56 23.76 39.3501 23.82 38.9901C23.925 38.5198 24.0757 38.061 24.27 37.62C24.563 36.9644 24.9179 36.3382 25.33 35.75C25.8733 34.9646 26.5115 34.2492 27.23 33.62C28.072 32.8784 29.0024 32.2436 30 31.73C30.5166 31.4439 31.0632 31.2159 31.63 31.05H31.69C31.69 31.05 31.69 31.05 31.76 31.05C31.9157 31.103 32.0663 31.17 32.21 31.25L32.73 31.5301C32.8906 31.6184 33.0444 31.7187 33.19 31.83C33.2928 31.8948 33.3813 31.9798 33.45 32.0801C33.45 32.0801 33.45 32.0801 33.45 32.1301C32.9834 32.3769 32.5355 32.6576 32.11 32.9701C31.68 33.2901 31.31 33.58 30.98 33.85C30.65 34.12 30.25 34.5 29.92 34.85C29.2899 35.4332 28.7506 36.1073 28.32 36.85C28.0706 37.193 27.8968 37.585 27.81 38C27.81 38.18 27.89 38.2701 28.04 38.2701C28.2379 38.2533 28.4294 38.1917 28.6 38.09C28.866 37.9418 29.1231 37.7782 29.37 37.6C29.65 37.39 29.97 37.15 30.31 36.87L31.38 36C31.7131 35.7321 32.0303 35.4449 32.33 35.14C32.6212 34.8643 32.8983 34.574 33.16 34.2701C33.4283 33.958 33.6692 33.6235 33.88 33.2701V33.2701H34C34.1466 33.3936 34.2776 33.5347 34.39 33.69C34.5437 33.894 34.684 34.1078 34.81 34.3301C34.93 34.5601 35.04 34.79 35.13 35.01C35.207 35.1667 35.2544 35.3362 35.27 35.51C35.0478 35.9458 34.8573 36.3969 34.7 36.8601C34.57 37.2701 34.47 37.62 34.4 37.93C34.3372 38.1894 34.2971 38.4537 34.28 38.7201C34.21 38.9101 34.2 39.08 34.2 39.19Z" fill="#A9AFC3"/>
<path d="M8.54 21.72C8.87097 16.2512 11.2754 11.1145 15.263 7.3573C19.2506 3.60009 24.5212 1.5053 30 1.50003H96V21.72H97.5V2.76531e-05H30C24.1154 -0.00909174 18.4512 2.23763 14.1729 6.27789C9.89451 10.3181 7.32748 15.8446 7 21.72H8.54Z" fill="#A9AFC3"/>
<path d="M48.1599 38.83C48.1599 39.09 48.2499 39.23 48.4199 39.23C48.67 39.214 48.9145 39.1495 49.1399 39.04C49.4443 38.8936 49.7383 38.7265 50.0199 38.54C50.3199 38.33 50.6399 38.1 50.9499 37.85C51.2599 37.6 51.5699 37.35 51.8499 37.1C52.1299 36.85 52.3799 36.63 52.5999 36.42C52.8199 36.21 52.9999 36.04 53.1199 35.91C53.2299 36.01 53.3599 36.13 53.4999 36.28C53.6399 36.43 53.7899 36.56 53.8999 36.69L52.9699 37.61C52.6199 37.95 52.2499 38.29 51.8499 38.61C51.4499 38.93 51.0399 39.3 50.6099 39.61C50.1799 39.92 49.7599 40.24 49.3399 40.5C48.9421 40.7364 48.5277 40.9437 48.0999 41.12C47.7387 41.272 47.3517 41.3535 46.9599 41.36C46.7079 41.3359 46.4665 41.2463 46.2599 41.1C45.9761 40.9133 45.7115 40.6989 45.4699 40.46C45.2303 40.2155 45.0159 39.9475 44.8299 39.66C44.6729 39.4365 44.5827 39.1729 44.5699 38.9C44.5714 38.3921 44.6015 37.8846 44.6599 37.38C44.1899 37.8 43.7299 38.21 43.2799 38.59C42.8299 38.97 42.3899 39.32 41.9399 39.66C41.4899 40 41.0299 40.29 40.5599 40.57C40.0848 40.855 39.5863 41.0992 39.0699 41.3C38.9395 41.3535 38.8008 41.3839 38.6599 41.39C38.5077 41.3768 38.3623 41.3214 38.2399 41.23C38.0605 41.1177 37.8959 40.9833 37.7499 40.83C37.5912 40.6606 37.4535 40.4725 37.3399 40.27C37.2273 40.0934 37.1651 39.8894 37.1599 39.68C37.1733 39.1872 37.2575 38.6989 37.4099 38.23C37.5899 37.6573 37.8278 37.1044 38.1199 36.58C38.4605 36.026 38.8415 35.4979 39.2599 35C39.7225 34.4202 40.2344 33.8815 40.7899 33.39C41.3774 32.8715 42.0099 32.4063 42.6799 32C43.3705 31.5797 44.1091 31.2439 44.8799 31C45.0784 31.0343 45.2706 31.0983 45.4499 31.19L46.0999 31.53C46.4799 30.45 46.9199 29.36 47.4099 28.26C47.8999 27.16 48.4099 26.12 48.9799 25.11C49.5499 24.1 50.1099 23.11 50.7199 22.27C51.2733 21.4775 51.8744 20.7194 52.5199 20C53.0493 19.3783 53.6501 18.8211 54.3099 18.34C54.8039 17.9402 55.3815 17.6565 55.9999 17.51C56.2595 17.5194 56.5118 17.5989 56.7299 17.74C56.9958 17.8998 57.2439 18.0875 57.4699 18.3C57.6911 18.5034 57.892 18.7278 58.0699 18.97C58.2033 19.1478 58.3048 19.3475 58.3699 19.56C58.3469 20.1407 58.2217 20.7128 57.9999 21.25C57.7246 21.973 57.3902 22.672 56.9999 23.34C56.5373 24.1446 56.0299 24.9225 55.4799 25.67C54.8999 26.49 54.2599 27.32 53.5899 28.16C52.9199 29 52.1999 29.83 51.4599 30.67C50.7199 31.51 49.9599 32.31 49.2099 33.09C48.8999 34.17 48.6499 35.2 48.4599 36.17C48.2808 37.046 48.1804 37.9362 48.1599 38.83V38.83ZM41.0799 38.29C41.6547 38.1902 42.1909 37.9342 42.6299 37.55C43.4553 36.9423 44.2341 36.2738 44.9599 35.55C45.0599 35.06 45.1699 34.55 45.3099 34.07C45.4499 33.59 45.5999 33.07 45.7699 32.54C45.1464 32.9846 44.555 33.4724 43.9999 34C43.4526 34.4954 42.9318 35.0195 42.4399 35.57C42.027 36.0169 41.6492 36.495 41.3099 37C41.0905 37.2941 40.9463 37.6374 40.8899 38C40.8899 38.2 40.9999 38.29 41.0799 38.29ZM56.0799 19.43C55.9489 19.4496 55.8231 19.4951 55.7098 19.5638C55.5965 19.6324 55.4979 19.7229 55.4199 19.83C55.0975 20.1698 54.8063 20.538 54.5499 20.93C54.2299 21.4 53.8899 21.93 53.5499 22.6C53.2099 23.27 52.8199 23.95 52.4499 24.71C52.0799 25.47 51.7199 26.28 51.3499 27.13C50.9799 27.98 50.6299 28.86 50.3499 29.73C51.1399 28.73 51.8899 27.79 52.6099 26.81C53.3299 25.83 53.9199 24.9 54.4599 24C54.9409 23.2268 55.3686 22.4215 55.7399 21.59C56.0165 21.0243 56.1763 20.4088 56.2099 19.78V19.54C56.1999 19.48 56.1699 19.43 56.1199 19.43H56.0799Z" fill="#A9AFC3"/>
<path d="M64.1201 36.69C63.2599 37.5495 62.341 38.3481 61.3701 39.08C60.5992 39.6737 59.7758 40.1959 58.9101 40.64C58.1977 41.0042 57.4462 41.286 56.6701 41.48C55.9856 41.6448 55.2841 41.7287 54.5801 41.73C54.2406 41.7098 53.9126 41.5993 53.6301 41.41C53.2636 41.1996 52.9272 40.9405 52.6301 40.64C52.343 40.3555 52.0881 40.0403 51.8701 39.7C51.6975 39.4515 51.594 39.1616 51.5701 38.86C51.5841 38.0487 51.7293 37.2449 52.0001 36.48C52.4225 35.1407 53.1959 33.9391 54.2401 33C54.7223 32.575 55.2486 32.2029 55.8101 31.89C56.3262 31.608 56.8731 31.3865 57.4401 31.23C57.9239 31.0855 58.4252 31.0082 58.9301 31C59.2838 31.0022 59.63 31.1026 59.9301 31.29C60.5636 31.6691 61.0875 32.2068 61.4501 32.85C61.6001 33.0874 61.6862 33.3595 61.7001 33.64C61.6789 34.047 61.5203 34.4349 61.2501 34.74C60.8741 35.1763 60.444 35.5628 59.9701 35.89C59.3315 36.3321 58.6632 36.7297 57.9701 37.08C57.1967 37.4867 56.3467 37.8967 55.4201 38.31C55.4052 38.5598 55.4052 38.8102 55.4201 39.06C55.4061 39.1786 55.4177 39.2988 55.4539 39.4127C55.4901 39.5265 55.5502 39.6312 55.6301 39.72C55.8706 39.8641 56.151 39.9272 56.4301 39.9C57.1124 39.9051 57.79 39.7865 58.4301 39.55C59.0523 39.3069 59.6486 39.002 60.2101 38.64C60.7908 38.2618 61.3423 37.8406 61.8601 37.38L63.4301 35.93L64.1201 36.69ZM58.5401 32.69C58.2756 32.7129 58.0294 32.8343 57.8501 33.03C57.5601 33.2933 57.3047 33.5924 57.0901 33.92C56.8122 34.326 56.568 34.7541 56.3601 35.2C56.1233 35.6845 55.9227 36.1859 55.7601 36.7C56.1501 36.44 56.5301 36.17 56.9101 35.89C57.2681 35.6186 57.6026 35.3175 57.9101 34.99C58.1903 34.6899 58.4291 34.3535 58.6201 33.99C58.7942 33.6853 58.8872 33.341 58.8901 32.99C58.8895 32.9005 58.8616 32.8133 58.8101 32.74C58.7687 32.7181 58.723 32.7058 58.6762 32.704C58.6295 32.7023 58.5829 32.7112 58.5401 32.73V32.69Z" fill="#A9AFC3"/>
<path d="M67.6299 32.9301C67.4999 33.2601 67.3699 33.6001 67.2499 33.9301C67.1299 34.2601 66.9999 34.6301 66.8799 34.9901C67.5499 34.2001 68.0999 33.5601 68.5399 33.0901C68.9799 32.6201 69.3399 32.2401 69.6299 31.9801C69.8515 31.7709 70.0926 31.5834 70.3499 31.4201C70.517 31.3299 70.6908 31.253 70.8699 31.1901C71.0422 31.2107 71.2087 31.2651 71.3599 31.3501C71.6101 31.4631 71.8538 31.5899 72.0899 31.7301C72.3499 31.8901 72.5899 32.0501 72.8199 32.2101C72.9993 32.3267 73.1667 32.4607 73.3199 32.6101C73.3556 32.6652 73.3746 32.7294 73.3746 32.7951C73.3746 32.8607 73.3556 32.925 73.3199 32.9801C73.1899 33.3201 73.0699 33.6601 72.9499 33.9801C72.8299 34.3001 72.6999 34.6701 72.5899 34.9801C73.2966 34.1667 73.8866 33.5001 74.3599 32.9801C74.8332 32.4601 75.2332 32.1334 75.5599 32.0001C75.7717 31.7995 76.0067 31.625 76.2599 31.4801C76.3838 31.4119 76.5196 31.3678 76.6599 31.3501C76.879 31.376 77.0902 31.4476 77.2799 31.5601C77.5682 31.7103 77.8456 31.8807 78.1099 32.0701C78.3697 32.2529 78.6139 32.4569 78.8399 32.6801C79.0056 32.8247 79.1153 33.0229 79.1499 33.2401C79.1532 33.28 79.1532 33.3201 79.1499 33.3601C79.1564 33.4199 79.1564 33.4803 79.1499 33.5401C79.0699 33.8001 78.9599 34.1201 78.8299 34.4801C78.6999 34.8401 78.5599 35.2101 78.4099 35.5901C78.2599 35.9701 78.1099 36.3601 77.9699 36.7501C77.8299 37.1401 77.6899 37.5001 77.5699 37.8401C77.4499 38.1801 77.3599 38.4701 77.2799 38.7201C77.2221 38.902 77.1852 39.0898 77.1699 39.2801C77.1699 39.3401 77.1699 39.3701 77.2699 39.3701C77.4562 39.3441 77.6341 39.2756 77.7899 39.1701C78.0199 39.0301 78.2899 38.8501 78.5899 38.6301C78.8899 38.4101 79.2099 38.1601 79.5299 37.9001C79.8499 37.6401 80.1799 37.3701 80.5299 37.1101L81.3399 36.4101L81.8999 35.9301L82.2399 36.3001L82.6099 36.7101C82.3799 36.9401 82.0899 37.2301 81.7399 37.5601C81.3899 37.8901 81.0099 38.2301 80.6099 38.5601C80.2099 38.8901 79.7799 39.2601 79.3399 39.5601C78.9291 39.8913 78.5019 40.2017 78.0599 40.4901C77.6948 40.7433 77.3103 40.9674 76.9099 41.1601C76.6247 41.3085 76.311 41.3937 75.9899 41.4101C75.7795 41.3999 75.5743 41.3418 75.3899 41.2401C75.1405 41.1328 74.9054 40.9951 74.6899 40.8301C74.474 40.6757 74.2819 40.4903 74.1199 40.2801C73.9751 40.1204 73.8903 39.9154 73.8799 39.7001C73.9699 39.2701 74.0999 38.7701 74.2599 38.2301C74.4199 37.6901 74.5899 37.1101 74.7799 36.5401C74.9699 35.9701 75.1699 35.3901 75.3799 34.8301C75.5899 34.2701 75.7799 33.7601 75.9699 33.2801C75.7599 33.5301 75.4799 33.8401 75.1299 34.2001C74.7061 34.65 74.3088 35.1242 73.9399 35.6201C73.4215 36.3164 72.9472 37.0445 72.5199 37.8001C71.8914 38.8244 71.3399 39.894 70.8699 41.0001C70.8461 41.098 70.7871 41.1838 70.7041 41.241C70.6211 41.2982 70.5199 41.3228 70.4199 41.3101C70.2608 41.3079 70.1027 41.2843 69.9499 41.2401C69.7467 41.1856 69.5492 41.1119 69.3599 41.0201C69.1406 40.9134 68.9299 40.7896 68.7299 40.6501C68.5058 40.495 68.301 40.3137 68.1199 40.1101C68.1455 39.8844 68.1855 39.6606 68.2399 39.4401C68.3199 39.0601 68.4299 38.5801 68.5799 38.0001C68.7299 37.4201 68.9199 36.7701 69.1299 36.0001C69.3399 35.2301 69.5799 34.5401 69.8399 33.7801L68.8399 34.8401C68.4057 35.3345 67.9985 35.8519 67.6199 36.3901C67.1899 37.0001 66.7499 37.7001 66.2899 38.5101C65.8027 39.387 65.3751 40.2957 65.0099 41.2301C64.9905 41.3298 64.9347 41.4188 64.8534 41.4798C64.7721 41.5408 64.6711 41.5694 64.5699 41.5601C64.3552 41.5525 64.1443 41.5014 63.9499 41.4101C63.7087 41.301 63.4778 41.1704 63.2599 41.0201C63.0199 40.8501 62.7799 40.6701 62.5399 40.4701C62.2999 40.2701 62.0899 40.0701 61.8999 39.8701C61.9248 39.7117 61.9582 39.5548 61.9999 39.4001C62.0599 39.1001 62.1399 38.7301 62.2499 38.2801C62.3599 37.8301 62.4799 37.2801 62.6299 36.7501C62.7799 36.2201 62.9599 35.5601 63.1599 34.9301C63.3599 34.3001 63.5899 33.6501 63.8299 32.9901C64.0699 32.3301 64.3299 31.6901 64.6099 31.0801C65.0499 31.2901 65.5399 31.5501 66.0899 31.8601C66.6418 32.1578 67.1584 32.5167 67.6299 32.9301V32.9301Z" fill="#A9AFC3"/>
<path d="M82.7799 41.4601C82.5696 41.4499 82.3643 41.3918 82.1799 41.2901C81.9306 41.1828 81.6955 41.0451 81.4799 40.8801C81.264 40.7257 81.072 40.5404 80.9099 40.3301C80.7651 40.1704 80.6803 39.9654 80.6699 39.7501C80.7799 39.2801 80.9199 38.7501 81.0999 38.1501C81.2799 37.5501 81.4699 36.9301 81.6799 36.3101C81.8899 35.6901 82.0999 35.0801 82.3299 34.4801C82.5599 33.8801 82.7599 33.3501 82.9399 32.8901C83.1199 32.4301 83.2899 32.0501 83.4299 31.7601C83.5699 31.4701 83.6499 31.3301 83.6999 31.3301C83.8671 31.3738 84.0259 31.4447 84.1699 31.5401C84.447 31.6895 84.7142 31.8565 84.9699 32.0401C85.2402 32.2251 85.4944 32.4325 85.7299 32.6601C85.909 32.7964 86.0274 32.9974 86.0599 33.2201C86.0632 33.26 86.0632 33.3002 86.0599 33.3401C86.0599 33.3401 86.0599 33.4501 86.0599 33.5201C85.9699 33.7801 85.8599 34.1001 85.7299 34.4601C85.5999 34.8201 85.4599 35.1901 85.3099 35.5701C85.1599 35.9501 85.0099 36.3401 84.8699 36.7301C84.7299 37.1201 84.5899 37.4801 84.4699 37.8201C84.3499 38.1601 84.2599 38.4501 84.1799 38.7001C84.1221 38.882 84.0852 39.0698 84.0699 39.2601C84.0699 39.3201 84.0699 39.3501 84.1699 39.3501C84.3563 39.3241 84.5342 39.2557 84.6899 39.1501C84.9199 39.0101 85.1899 38.8301 85.4899 38.6101C85.7899 38.3901 86.1099 38.1401 86.4299 37.8801C86.7499 37.6201 87.0799 37.3501 87.3799 37.0901L88.1899 36.3901L88.7499 35.9101L89.0899 36.2801L89.4599 36.6901C89.2299 36.9201 88.9399 37.2101 88.5899 37.5401C88.2399 37.8701 87.8599 38.2101 87.4599 38.5401C87.0599 38.8701 86.6299 39.2401 86.1899 39.5401C85.7791 39.8713 85.3519 40.1817 84.9099 40.4701C84.5448 40.7233 84.1603 40.9474 83.7599 41.1401C83.4626 41.3215 83.127 41.4311 82.7799 41.4601V41.4601ZM89.0499 26.4601C89.0499 26.4601 89.0499 26.6001 88.9299 26.7701C88.8099 26.9401 88.7799 27.1201 88.6899 27.3401C88.5999 27.5601 88.4899 27.7801 88.3599 28.0201C88.2299 28.2601 88.1199 28.4801 88.0099 28.6801C87.9073 28.8538 87.7937 29.0208 87.6699 29.1801C87.5699 29.3101 87.4799 29.3801 87.4199 29.3801C87.1817 29.358 86.9486 29.2972 86.7299 29.2001C86.4634 29.1025 86.2057 28.982 85.9599 28.8401C85.7398 28.7252 85.5261 28.5984 85.3199 28.4601C85.1499 28.3301 85.0599 28.2401 85.0599 28.1901C85.0735 27.8914 85.1378 27.5972 85.2499 27.3201C85.3788 26.9792 85.5256 26.6454 85.6899 26.3201C85.8393 26.0196 86.0132 25.732 86.2099 25.4601C86.3799 25.2201 86.5199 25.0901 86.6099 25.0901C86.8536 25.1063 87.0915 25.1709 87.3099 25.2801C87.5856 25.4022 87.8529 25.5425 88.1099 25.7001C88.342 25.8403 88.5657 25.9939 88.7799 26.1601C88.9266 26.3268 89.0166 26.4401 89.0499 26.5001V26.4601Z" fill="#A9AFC3"/>
<path d="M97.45 39.19C97.4484 39.2036 97.4498 39.2173 97.4543 39.2301C97.4587 39.243 97.4661 39.2547 97.4757 39.2643C97.4853 39.2739 97.497 39.2813 97.5099 39.2857C97.5227 39.2902 97.5364 39.2917 97.55 39.2901C97.7208 39.2575 97.8817 39.1856 98.02 39.0801C98.2857 38.9205 98.5427 38.7469 98.79 38.5601L99.7 37.85L100.62 37.07C100.92 36.82 101.19 36.58 101.42 36.37L101.97 35.8801L102.33 36.26L102.72 36.69C102.46 36.92 102.16 37.2101 101.8 37.5401C101.44 37.8701 101.07 38.2201 100.66 38.5401C100.25 38.8601 99.84 39.2501 99.4 39.6101C98.96 39.9701 98.55 40.27 98.13 40.55C97.7573 40.8023 97.3662 41.0263 96.96 41.2201C96.6514 41.3835 96.309 41.4725 95.96 41.48C95.7453 41.4792 95.5322 41.442 95.33 41.37C95.1038 41.3035 94.8907 41.1987 94.7 41.0601C94.5152 40.9384 94.3556 40.7822 94.23 40.6C94.1016 40.423 94.0349 40.2087 94.04 39.9901C94.04 39.9101 94.04 39.81 94.04 39.69C94.0263 39.5303 94.0263 39.3698 94.04 39.21C94.0709 38.9713 94.1143 38.7343 94.17 38.5C94.23 38.22 94.33 37.87 94.46 37.5C94.11 37.87 93.7 38.25 93.23 38.66C92.76 39.07 92.23 39.44 91.75 39.8C91.2447 40.161 90.7206 40.4948 90.18 40.8C89.7181 41.0645 89.2327 41.2854 88.73 41.46H88.61H88.51C88.3586 41.4435 88.214 41.3884 88.09 41.3C87.9011 41.1847 87.7294 41.0433 87.58 40.8801C87.406 40.7053 87.2578 40.5067 87.14 40.2901C87.0247 40.0854 86.9628 39.8549 86.96 39.62C86.96 39.56 86.99 39.3501 87.05 38.9901C87.1544 38.5184 87.3086 38.0592 87.51 37.62C87.7831 36.9664 88.118 36.3402 88.51 35.75C89.0563 34.967 89.6941 34.2519 90.41 33.62C91.2333 32.8825 92.1433 32.2478 93.12 31.73C93.6365 31.4439 94.1832 31.2159 94.75 31.05H94.81C94.81 31.05 94.81 31.05 94.88 31.05C95.0357 31.103 95.1863 31.17 95.33 31.25L95.86 31.5301C96.016 31.6207 96.1663 31.7209 96.31 31.83C96.413 31.8981 96.5042 31.9825 96.58 32.0801V32.1301C96.1319 32.3872 95.704 32.6781 95.3 33C94.87 33.32 94.5 33.6101 94.17 33.8801C93.84 34.1501 93.44 34.5301 93.11 34.8801C92.4829 35.466 91.944 36.1396 91.51 36.8801C91.2892 37.2198 91.1395 37.6008 91.07 38C91.07 38.18 91.14 38.2701 91.29 38.2701C91.4881 38.2543 91.6798 38.1927 91.85 38.09C92.1159 37.9418 92.373 37.7782 92.62 37.6C92.91 37.39 93.22 37.15 93.56 36.87L94.63 36C94.9802 35.7336 95.3141 35.4465 95.63 35.14C95.9212 34.8643 96.1982 34.574 96.46 34.2701C96.7313 33.9581 96.9755 33.6236 97.19 33.2701V33.2701C97.3401 33.393 97.4745 33.5341 97.59 33.69C97.73 33.89 97.87 34.1001 98 34.3301C98.13 34.5601 98.23 34.79 98.32 35.01C98.397 35.1667 98.4444 35.3362 98.46 35.51C98.2364 35.9439 98.0491 36.3954 97.9 36.8601C97.7777 37.2109 97.6742 37.5681 97.59 37.93C97.5321 38.1904 97.492 38.4543 97.47 38.7201C97.46 38.9101 97.45 39.08 97.45 39.19Z" fill="#A9AFC3"/>
<path d="M69.3599 12.17V16.17H67.9399V6.25H71.1899C72.1899 6.25 72.6599 6.72 72.6599 7.65V10.76C72.6838 10.9206 72.6751 11.0844 72.6343 11.2415C72.5936 11.3987 72.5216 11.5461 72.4227 11.6748C72.3238 11.8036 72.1999 11.9112 72.0586 11.9911C71.9173 12.071 71.7613 12.1216 71.5999 12.14L73.1699 16.19H71.6299L70.1399 12.19L69.3599 12.17ZM69.3599 7.41V11H70.7599C70.8933 11.0157 71.0278 10.9838 71.1399 10.91C71.2183 10.8035 71.2539 10.6715 71.2399 10.54V7.87C71.2539 7.73851 71.2183 7.60654 71.1399 7.5C71.0278 7.42619 70.8933 7.39432 70.7599 7.41H69.3599Z" fill="#A9AFC3"/>
<path d="M63.1101 6.25H64.8701C65.8701 6.25 66.3501 6.72 66.3501 7.65V14.79C66.3501 15.72 65.8601 16.19 64.8701 16.19H63.1101C62.1101 16.19 61.6201 15.72 61.6201 14.79V7.65C61.6201 6.72 62.1201 6.25 63.1101 6.25ZM64.9201 14.57V7.87C64.937 7.73978 64.9049 7.60793 64.8301 7.5C64.7173 7.42774 64.5833 7.396 64.4501 7.41H63.5301C63.3967 7.39251 63.2615 7.42453 63.1501 7.5C63.0797 7.60964 63.0513 7.74105 63.0701 7.87V14.57C63.0513 14.6989 63.0797 14.8304 63.1501 14.94C63.2615 15.0155 63.3967 15.0475 63.5301 15.03H64.4501C64.5833 15.044 64.7173 15.0123 64.8301 14.94C64.9049 14.8321 64.937 14.7002 64.9201 14.57V14.57Z" fill="#A9AFC3"/>
<path d="M58.5 6.25H59.92V16.19H58.5V6.25Z" fill="#A9AFC3"/>
<path d="M53.5101 12.17V16.17H52.0901V6.25H55.3401C56.3401 6.25 56.8101 6.72 56.8101 7.65V10.76C56.8339 10.9206 56.8252 11.0844 56.7845 11.2415C56.7437 11.3987 56.6717 11.5461 56.5728 11.6748C56.4739 11.8036 56.3501 11.9112 56.2087 11.9911C56.0674 12.071 55.9114 12.1216 55.7501 12.14L57.3201 16.19H55.7801L54.2901 12.19L53.5101 12.17ZM53.5101 7.41V11H54.9101C55.0434 11.0157 55.178 10.9838 55.2901 10.91C55.3684 10.8035 55.4041 10.6715 55.3901 10.54V7.87C55.4041 7.73851 55.3684 7.60654 55.2901 7.5C55.178 7.42619 55.0434 7.39432 54.9101 7.41H53.5101Z" fill="#A9AFC3"/>
<path d="M48.0899 15H50.9999V16.16H46.6399V6.25H50.8499V7.41H48.0899V10.47H50.3699V11.63H48.0899V15Z" fill="#A9AFC3"/>
<path d="M45.74 6.25V7.41H44.07V16.19H42.65V7.41H41V6.25H45.74Z" fill="#A9AFC3"/>
<path d="M38.76 6.25H40.08V16.19H38.63L36.54 9V16.18H35.22V6.25H36.73L38.73 13.25L38.76 6.25Z" fill="#A9AFC3"/>
<path d="M32 6.25H33.42V16.19H32V6.25Z" fill="#A9AFC3"/>
</g>
<defs>
<clipPath id="clip0">
<rect width="102.72" height="65" fill="white"/>
</clipPath>
</defs>
</svg>
