<svg width="125" height="77" viewBox="0 0 125 77" fill="none" xmlns="http://www.w3.org/2000/svg">
<g  clip-path="url(#clip0)">
<path d="M97.49 50.29L74.55 73.22C73.9921 73.7839 73.3278 74.2316 72.5957 74.5371C71.8637 74.8426 71.0783 74.9999 70.285 74.9999C69.4917 74.9999 68.7063 74.8426 67.9743 74.5371C67.2422 74.2316 66.5779 73.7839 66.02 73.22L43.08 50.29H41L65 74.29C65.6994 74.9909 66.5302 75.547 67.4448 75.9263C68.3594 76.3057 69.3398 76.501 70.33 76.501C71.3202 76.501 72.3006 76.3057 73.2152 75.9263C74.1298 75.547 74.9606 74.9909 75.66 74.29L99.66 50.29H97.49Z" fill="#A9AFC3"/>
<path d="M81.27 50.29L58.33 73.22C57.772 73.7839 57.1078 74.2316 56.3757 74.5371C55.6437 74.8426 54.8583 74.9999 54.065 74.9999C53.2717 74.9999 52.4863 74.8426 51.7543 74.5371C51.0222 74.2316 50.3579 73.7839 49.8 73.22L26.86 50.29H24.74L48.74 74.29C49.4386 74.9906 50.2685 75.5464 51.1823 75.9257C52.096 76.3049 53.0756 76.5002 54.065 76.5002C55.0543 76.5002 56.0339 76.3049 56.9477 75.9257C57.8615 75.5464 58.6914 74.9906 59.39 74.29L83.39 50.29H81.27Z" fill="#A9AFC3"/>
<path d="M65.35 62.39V61.25H66.19V62.39H65.35Z" fill="#A9AFC3"/>
<path d="M62.69 56.05H63.69C63.7999 56.0352 63.9117 56.0459 64.0168 56.0813C64.1218 56.1168 64.2173 56.176 64.2957 56.2544C64.374 56.3328 64.4333 56.4282 64.4687 56.5333C64.5042 56.6383 64.5149 56.7502 64.5 56.86V61.59C64.5153 61.6995 64.5048 61.8111 64.4693 61.9158C64.4339 62.0206 64.3744 62.1156 64.2958 62.1933C64.2171 62.271 64.1214 62.3292 64.0162 62.3634C63.911 62.3975 63.7993 62.4067 63.69 62.39H62.69C62.5815 62.4049 62.4709 62.3945 62.3671 62.3596C62.2632 62.3246 62.1689 62.2662 62.0914 62.1887C62.0139 62.1112 61.9554 62.0168 61.9205 61.913C61.8855 61.8091 61.8751 61.6986 61.89 61.59V56.86C61.8734 56.7507 61.8825 56.639 61.9167 56.5339C61.9509 56.4287 62.0091 56.333 62.0868 56.2543C62.1645 56.1756 62.2595 56.1162 62.3642 56.0807C62.469 56.0453 62.5805 56.0347 62.69 56.05V56.05ZM63.84 61.48V57C63.8512 56.909 63.83 56.8169 63.78 56.74C63.78 56.74 63.66 56.69 63.53 56.69H62.89C62.8035 56.6782 62.7154 56.6958 62.64 56.74C62.5901 56.8169 62.5688 56.909 62.58 57V61.51C62.5688 61.601 62.5901 61.6931 62.64 61.77C62.7218 61.7926 62.8082 61.7926 62.89 61.77H63.53C63.6116 61.7942 63.6985 61.7942 63.78 61.77C63.8374 61.685 63.8589 61.5808 63.84 61.48V61.48Z" fill="#A9AFC3"/>
<path d="M61 57.93H60.3V57C60.3 56.87 60.3 56.78 60.23 56.74C60.16 56.7 60.11 56.69 59.98 56.69H59.42C59.28 56.69 59.2 56.69 59.16 56.74C59.1101 56.8169 59.0888 56.909 59.1 57V61.52C59.0886 61.6079 59.1099 61.6969 59.16 61.77C59.2366 61.8208 59.329 61.8421 59.42 61.83H60C60.0879 61.8415 60.1769 61.8201 60.25 61.77C60.25 61.77 60.32 61.65 60.32 61.52V60.52H61V61.6C61.0153 61.7095 61.0048 61.8211 60.9693 61.9258C60.9339 62.0306 60.8744 62.1256 60.7958 62.2033C60.7171 62.281 60.6214 62.3392 60.5162 62.3734C60.411 62.4075 60.2993 62.4167 60.19 62.4H59.19C59.0815 62.4149 58.9709 62.4045 58.8671 62.3696C58.7632 62.3346 58.6689 62.2761 58.5914 62.1987C58.5139 62.1212 58.4554 62.0268 58.4205 61.923C58.3855 61.8191 58.3751 61.7086 58.39 61.6V56.86C58.3734 56.7507 58.3825 56.639 58.4167 56.5339C58.4509 56.4287 58.5091 56.333 58.5868 56.2543C58.6645 56.1756 58.7595 56.1162 58.8642 56.0807C58.969 56.0453 59.0805 56.0347 59.19 56.05H60.19C60.2999 56.0352 60.4117 56.0459 60.5168 56.0813C60.6218 56.1168 60.7173 56.176 60.7957 56.2544C60.874 56.3328 60.9333 56.4282 60.9687 56.5333C61.0042 56.6383 61.0149 56.7502 61 56.86V57.93Z" fill="#A9AFC3"/>
<path d="M112.44 30.27V46.06H109V30.27H112.44Z" fill="#A9AFC3"/>
<path d="M103.46 30.27C105.46 30.27 106.46 31.3434 106.46 33.49V42.84C106.46 44.9867 105.46 46.06 103.46 46.06H97.1899V30.27H103.46ZM103.07 43.27V33.08C103.072 33.0176 103.062 32.9553 103.039 32.8969C103.017 32.8385 102.983 32.7852 102.94 32.74C102.899 32.6925 102.849 32.6545 102.792 32.6285C102.735 32.6026 102.673 32.5895 102.61 32.59H100.61V43.72H102.61C102.673 43.7206 102.735 43.7074 102.792 43.6815C102.849 43.6556 102.899 43.6175 102.94 43.57C103.026 43.4781 103.073 43.356 103.07 43.23V43.27Z" fill="#A9AFC3"/>
<path d="M91.43 30.27H94.85V43.08C94.85 45.2267 93.85 46.3 91.85 46.3H88.85C86.85 46.3 85.85 45.2267 85.85 43.08V30.27H89.27V43.38C89.267 43.506 89.3137 43.6282 89.4 43.72C89.4425 43.7647 89.4937 43.8002 89.5504 43.8243C89.6072 43.8484 89.6683 43.8605 89.73 43.86H91C91.0616 43.8605 91.1228 43.8484 91.1795 43.8243C91.2363 43.8002 91.2875 43.7647 91.33 43.72C91.4163 43.6282 91.463 43.506 91.46 43.38L91.43 30.27Z" fill="#A9AFC3"/>
<path d="M75.6899 33.17V30.27H84.2299V33.17H81.6699V46.06H78.2599V33.17H75.6899Z" fill="#A9AFC3"/>
<path d="M35.5999 30.27V46.06H32.1899V30.27H35.5999Z" fill="#A9AFC3"/>
<path d="M15.25 43.23H19V46.06H11.8V30.27H19V33.05H15.25V36.76H18.79V39.45H15.25V43.23Z" fill="#A9AFC3"/>
<path d="M6.27 30.27C8.27 30.27 9.27 31.3434 9.27 33.49V42.84C9.27 44.9867 8.27 46.06 6.27 46.06H0V30.27H6.27ZM5.88 43.27V33.08C5.88203 33.0176 5.87157 32.9553 5.84925 32.8969C5.82693 32.8385 5.79319 32.7852 5.75 32.74C5.70923 32.6925 5.65858 32.6545 5.60158 32.6285C5.54458 32.6026 5.48261 32.5895 5.42 32.59H3.42V43.72H5.42C5.48261 43.7206 5.54458 43.7074 5.60158 43.6815C5.65858 43.6556 5.70923 43.6175 5.75 43.57C5.83629 43.4781 5.88299 43.356 5.88 43.23V43.27Z" fill="#A9AFC3"/>
<path d="M74.18 34.42H70.94V33.17C70.9372 33.0432 70.8873 32.922 70.8 32.83C70.7575 32.7853 70.7063 32.7498 70.6495 32.7258C70.5927 32.7017 70.5316 32.6895 70.47 32.69H69.13C69.0683 32.6895 69.0072 32.7017 68.9504 32.7258C68.8936 32.7498 68.8424 32.7853 68.8 32.83C68.7154 32.923 68.669 33.0444 68.67 33.17V36C68.6679 36.0625 68.6784 36.1247 68.7007 36.1831C68.723 36.2415 68.7568 36.2948 68.8 36.34C68.8407 36.3875 68.8914 36.4256 68.9484 36.4515C69.0054 36.4774 69.0673 36.4906 69.13 36.49H71.33C73.33 36.49 74.33 37.6 74.33 39.71V43.1C74.33 45.2467 73.33 46.32 71.33 46.32H68.45C66.45 46.32 65.45 45.2467 65.45 43.1V41.45H68.7V43.2C68.6954 43.3293 68.7421 43.4551 68.83 43.55C68.8724 43.5947 68.9236 43.6302 68.9804 43.6543C69.0372 43.6784 69.0983 43.6905 69.16 43.69H70.67C70.7316 43.6905 70.7927 43.6784 70.8495 43.6543C70.9063 43.6302 70.9575 43.5947 71 43.55C71.0905 43.4561 71.1407 43.3305 71.14 43.2V40.11C71.1387 39.98 71.0888 39.8551 71 39.76C70.9575 39.7153 70.9063 39.6798 70.8495 39.6558C70.7927 39.6317 70.7316 39.6195 70.67 39.62H68.45C66.45 39.62 65.45 38.54 65.45 36.4V33.25C65.45 31.1034 66.45 30.03 68.45 30.03H71.16C73.16 30.03 74.16 31.1034 74.16 33.25L74.18 34.42Z" fill="#A9AFC3"/>
<path d="M58.2 46.06H54.78V33C54.7825 32.8711 54.736 32.7461 54.65 32.65C54.6075 32.6053 54.5563 32.5698 54.4995 32.5458C54.4428 32.5217 54.3817 32.5095 54.32 32.51H53C52.9383 32.5095 52.8772 32.5217 52.8205 32.5458C52.7637 32.5698 52.7125 32.6053 52.67 32.65C52.584 32.7461 52.5375 32.8711 52.54 33V46.1H49.12V33.25C49.12 31.1034 50.12 30.03 52.12 30.03H55.12C57.12 30.03 58.12 31.1034 58.12 33.25L58.2 46.06Z" fill="#A9AFC3"/>
<path d="M42.75 39.79V37.27H47.27V43.08C47.27 45.2267 46.27 46.3 44.27 46.3H41.17C39.17 46.3 38.17 45.2267 38.17 43.08V33.25C38.17 31.1034 39.17 30.03 41.17 30.03H44.24C46.24 30.03 47.24 31.1034 47.24 33.25V34.74H44V32.83C44.003 32.704 43.9563 32.5819 43.87 32.49C43.8288 32.4438 43.7778 32.4073 43.7207 32.3831C43.6637 32.3588 43.602 32.3476 43.54 32.35H42C41.9381 32.3476 41.8764 32.3588 41.8194 32.3831C41.7623 32.4073 41.7113 32.4438 41.67 32.49C41.5838 32.5819 41.5371 32.704 41.54 32.83V43.47C41.538 43.5325 41.5485 43.5947 41.5708 43.6531C41.5931 43.7115 41.6269 43.7648 41.67 43.81C41.7068 43.8649 41.7556 43.9106 41.8129 43.9435C41.8701 43.9765 41.9341 43.9958 42 44H43.54C43.6027 44.0006 43.6646 43.9874 43.7216 43.9615C43.7786 43.9356 43.8293 43.8975 43.87 43.85C43.9132 43.8048 43.947 43.7515 43.9693 43.6931C43.9916 43.6347 44.0021 43.5725 44 43.51V39.79H42.75Z" fill="#A9AFC3"/>
<path d="M124.28 33.25V43.08C124.28 45.2267 123.28 46.3 121.28 46.3H118C116 46.3 115 45.2267 115 43.08V33.25C115 31.0833 116 30 118 30H121.24C123.267 30 124.28 31.0833 124.28 33.25ZM120.86 43.47V32.83C120.863 32.704 120.816 32.5819 120.73 32.49C120.689 32.4438 120.638 32.4072 120.581 32.383C120.524 32.3588 120.462 32.3475 120.4 32.35H118.86C118.798 32.3475 118.736 32.3588 118.679 32.383C118.622 32.4072 118.571 32.4438 118.53 32.49C118.444 32.5819 118.397 32.704 118.4 32.83V43.47C118.398 43.5325 118.408 43.5947 118.431 43.6531C118.453 43.7115 118.487 43.7648 118.53 43.81C118.571 43.8575 118.621 43.8956 118.678 43.9215C118.735 43.9474 118.797 43.9605 118.86 43.96H120.4C120.463 43.9605 120.525 43.9474 120.582 43.9215C120.639 43.8956 120.689 43.8575 120.73 43.81C120.773 43.7648 120.807 43.7115 120.829 43.6531C120.852 43.5947 120.862 43.5325 120.86 43.47V43.47Z" fill="#A9AFC3"/>
<path d="M29.77 34.42H26.52V33.17C26.5209 33.0444 26.4745 32.923 26.39 32.83C26.3475 32.7853 26.2963 32.7498 26.2395 32.7257C26.1828 32.7016 26.1217 32.6895 26.06 32.69H24.72C24.6583 32.6895 24.5972 32.7016 24.5405 32.7257C24.4837 32.7498 24.4325 32.7853 24.39 32.83C24.3055 32.923 24.2591 33.0444 24.26 33.17V36C24.258 36.0625 24.2684 36.1247 24.2907 36.1831C24.3131 36.2415 24.3468 36.2948 24.39 36.34C24.4308 36.3875 24.4814 36.4256 24.5384 36.4515C24.5954 36.4774 24.6574 36.4905 24.72 36.49H26.92C28.92 36.49 29.92 37.6 29.92 39.71V43.1C29.92 45.2467 28.92 46.32 26.92 46.32H24C22 46.32 21 45.2467 21 43.1V41.45H24.25V43.2C24.2454 43.3293 24.2922 43.4551 24.38 43.55C24.4225 43.5947 24.4737 43.6302 24.5305 43.6543C24.5872 43.6784 24.6483 43.6905 24.71 43.69H26.22C26.2817 43.6905 26.3428 43.6784 26.3995 43.6543C26.4563 43.6302 26.5075 43.5947 26.55 43.55C26.6405 43.4561 26.6908 43.3305 26.69 43.2V40.11C26.6888 39.9799 26.6388 39.855 26.55 39.76C26.5075 39.7153 26.4563 39.6798 26.3995 39.6557C26.3428 39.6316 26.2817 39.6195 26.22 39.62H24C22 39.62 21 38.54 21 36.4V33.25C21 31.0833 22 30 24 30H26.7C28.7 30 29.7 31.0733 29.7 33.22L29.77 34.42Z" fill="#A9AFC3"/>
<path d="M43.08 26.2001L66 3.27009C66.558 2.70621 67.2222 2.25857 67.9543 1.95306C68.6863 1.64756 69.4717 1.49025 70.265 1.49025C71.0583 1.49025 71.8437 1.64756 72.5757 1.95306C73.3078 2.25857 73.972 2.70621 74.53 3.27009L97.49 26.2001H99.61L75.61 2.20009C74.1981 0.80117 72.2905 0.0171731 70.3029 0.0190463C68.3154 0.0209196 66.4092 0.808511 65 2.21009L41 26.2101L43.08 26.2001Z" fill="#A9AFC3"/>
<path d="M26.86 26.2001L49.8 3.27011C50.3579 2.70623 51.0222 2.25859 51.7543 1.95309C52.4863 1.64758 53.2717 1.49028 54.065 1.49028C54.8583 1.49028 55.6437 1.64758 56.3757 1.95309C57.1078 2.25859 57.772 2.70623 58.33 3.27011L81.27 26.2001H83.39L59.39 2.20011C58.6914 1.49955 57.8615 0.943718 56.9477 0.564464C56.0339 0.18521 55.0543 -0.0100098 54.065 -0.0100098C53.0756 -0.0100098 52.096 0.18521 51.1823 0.564464C50.2685 0.943718 49.4386 1.49955 48.74 2.20011L24.74 26.2001H26.86Z" fill="#A9AFC3"/>
<path d="M66.44 15.2202H67.08V21.5602H66.32L65 16.6502V21.5602H64.36V15.2202H65.18L66.44 20.0002V15.2202Z" fill="#A9AFC3"/>
<path d="M61.86 21.0002H63.6V21.6002H61.15V15.2202H63.53V15.8302H61.86V18.0002H63.22V18.6002H61.86V21.0002Z" fill="#A9AFC3"/>
<path d="M57.27 15.2202H59.27C59.3795 15.2049 59.4911 15.2154 59.5958 15.2509C59.7006 15.2864 59.7956 15.3458 59.8733 15.4245C59.951 15.5031 60.0092 15.5989 60.0434 15.704C60.0775 15.8092 60.0867 15.9209 60.07 16.0302V17.8502C60.07 18.1702 59.95 18.3302 59.7 18.3502C59.7553 18.3564 59.8089 18.3735 59.8575 18.4005C59.9061 18.4276 59.9489 18.4641 59.9833 18.5078C60.0178 18.5515 60.0432 18.6017 60.058 18.6553C60.0729 18.7089 60.077 18.765 60.07 18.8202V20.7602C60.0849 20.8687 60.0745 20.9793 60.0396 21.0831C60.0046 21.187 59.9461 21.2814 59.8687 21.3588C59.7912 21.4363 59.6968 21.4948 59.593 21.5297C59.4891 21.5647 59.3786 21.5751 59.27 21.5602H57.27V15.2202ZM59.38 17.7102V16.1402C59.3912 16.0492 59.37 15.9571 59.32 15.8802C59.2413 15.8352 59.1498 15.8176 59.06 15.8302H58V18.0002H59.09C59.181 18.0114 59.2731 17.9901 59.35 17.9402C59.3837 17.8685 59.3942 17.7881 59.38 17.7102V17.7102ZM59.38 20.6502V18.9402C59.3897 18.8524 59.3685 18.764 59.32 18.6902C59.2431 18.6402 59.151 18.619 59.06 18.6302H58V21.0002H59.09C59.1796 21.0077 59.2696 20.9904 59.35 20.9502C59.3747 20.9047 59.39 20.8547 59.3952 20.8032C59.4003 20.7517 59.3952 20.6997 59.38 20.6502V20.6502Z" fill="#A9AFC3"/>
</g>
<defs>
<clipPath id="clip0">
<rect width="124.28" height="76.49" fill="white"/>
</clipPath>
</defs>
</svg>
