<svg width="68" height="42" viewBox="0 0 68 42" fill="none" xmlns="http://www.w3.org/2000/svg">
<path d="M0 21.39C0 27.78 4.635 33.54 12.915 33.54C16.785 33.54 20.565 32.055 22.86 29.715L20.025 24.27C18.36 25.71 15.93 27.06 13.68 27.06C9.765 27.06 7.875 24.045 7.875 21.3C7.875 18.555 9.72 15.765 13.41 15.765C15.435 15.765 17.505 16.71 18.855 18.015L22.14 12.795C19.845 10.32 16.155 9.28503 12.915 9.28503C4.59 9.28503 0 15.18 0 21.39Z" fill="white"/>
<path d="M26.1341 33H33.9191V24C33.9191 19.77 35.9891 17.025 40.3091 17.025C40.8491 17.025 41.6141 17.07 41.8841 17.16V9.51003C41.6141 9.46504 41.2991 9.42003 40.9841 9.42003C37.5191 9.42003 34.5941 12.03 33.6041 15.18H33.5141C33.5141 15.18 33.6041 14.505 33.6041 13.74V9.82503H26.1341V33Z" fill="white"/>
<rect x="49.695" y="1" width="17" height="40" rx="8.5" stroke="white" stroke-width="2"/>
<circle cx="58.195" cy="31.5" r="5.5" fill="#DD4242"/>
</svg>
