<svg width="149" height="117" viewBox="0 0 149 117" fill="none" xmlns="http://www.w3.org/2000/svg">
<path d="M23.1399 38.4497C23.1399 44.9508 22.6884 52.1256 22.1407 58.4383M22.1407 58.4383C21.2958 68.1749 20.2218 75.8606 20.2218 75.8606C20.2218 75.8606 17.547 94.5055 12.6567 93.2141C7.76637 91.9227 11.3463 79.2506 15.345 70.0223C16.6227 67.0737 19.0341 62.8478 22.1407 58.4383ZM22.1407 58.4383C28.7568 49.0472 38.5261 38.8229 47.2133 38.3286M39.6003 59.4728C39.3334 57.2412 38.6774 55.5731 37.3996 55.0644C25.2322 50.2201 7.41461 70.0423 1 79.5742M39.6003 59.4728C40.1138 63.7664 39.1871 70.1461 38.4777 74.3682C37.3996 80.7849 35.8094 87.4438 31.0523 89.6903C26.2951 91.9368 27.198 80.7849 30.4728 73.884C32.1287 70.3944 35.6167 64.4786 39.6003 59.4728ZM39.6003 59.4728C43.4946 54.5791 47.8626 50.5551 51.4554 50.5175C52.7069 50.5044 53.1598 52.2678 53.1674 54.81M53.1674 54.81C49.6551 59.3698 46.3193 65.5495 45.0272 69.0883C42.8441 75.0678 41.0652 84.1749 44.2591 83.9328C47.453 83.6906 49.6361 76.3054 50.6064 71.8258C51.2622 68.7982 53.1831 60.111 53.1674 54.81ZM53.1674 54.81C55.5898 51.6651 58.096 49.2908 60.0736 49.0849C62.0278 48.8814 62.992 51.5332 63.3643 54.9973M63.3643 54.9973C63.9148 60.121 63.1702 67.0216 62.4185 69.0883C61.1584 72.5522 59.7704 79.7558 55.9431 80.7849C52.1158 81.814 54.0025 72.3101 55.9431 67.7094C57.0563 65.0702 60.1075 59.5581 63.3643 54.9973ZM63.3643 54.9973C65.7847 51.6077 68.3187 48.7436 70.255 47.9751C72.3628 47.1384 73.7885 49.1649 74.6033 52.2306M74.6033 52.2306C75.5441 55.7702 75.6707 60.695 75.093 64.1984C74.0149 70.7362 70.6323 78.3972 67.4653 77.8793C64.2984 77.3614 65.929 68.678 68.5165 64.1984C69.5951 62.3311 71.91 57.3714 74.6033 52.2306ZM74.6033 52.2306C78.3713 45.0388 82.8798 37.4925 85.7797 37.5631C89.1717 37.6456 84.5566 61.9504 80.7365 79.6615M80.7365 79.6615C78.9562 87.9156 77.3485 94.7376 76.8045 97.0083L76.8018 97.0193C75.0899 104.164 72.1052 116.621 66.7376 115.976C61.3673 115.33 66.1312 103.062 71.4678 93.9815C74.3363 89.1009 77.444 84.3349 80.7365 79.6615ZM80.7365 79.6615C100.418 51.7252 126.706 27.0929 148 1M6.109 104.175C18.7606 100.001 31.218 95.323 44.0544 91.7023C49.5606 90.1492 55.1632 88.9833 60.6825 87.4819" stroke="white" stroke-linecap="round" stroke-linejoin="round"/>
<circle cx="104.5" cy="81.5" r="1.5" fill="white"/>
</svg>
